<?xml version="1.0" encoding="utf-8"?>
<!-- Generator: Adobe Illustrator 23.0.3, SVG Export Plug-In . SVG Version: 6.00 Build 0)  -->
<svg version="1.1" id="Layer_1" xmlns="http://www.w3.org/2000/svg" xmlns:xlink="http://www.w3.org/1999/xlink" x="0px" y="0px"
	 viewBox="0 0 25.5 23.4" style="enable-background:new 0 0 25.5 23.4;" xml:space="preserve">
<title>Asset 14</title>
<g>
	<g id="Layer_1-2">
		<path d="M5.3,7.7H11l-0.5-0.4L4.9,17.8c-0.2,0.3,0.2,0.4,0.5,0.4h8.1c0.2,0,0.6-0.2,0.6-0.4V7.3L13,7.5L16.5,18
			c0.1,0.4,0.9,0.2,1.1-0.1l3.6-10.4H20v7.3c0,0.9-0.1,1.9,0,2.9c0.1,0.9,1.6,1.4,2.3,1.8c0.3,0.2,0.7,0.1,0.9-0.2
			c3.1-5.1,3.3-12.1-1.7-16.1c-3.5-3.1-9-4-13.5-2.4C2.6,2.7-0.9,8.7,0.2,14.3c1,5.6,6,8.9,11.5,9.1c2.4,0.1,4.9-0.2,7.2-0.9
			c1.1-0.3,2.7-0.7,3.7-1.4c0.6-0.5-0.3-0.8-0.7-0.4c-0.1,0.1,0,0-0.1,0.1c-0.2,0.1-0.4,0.2-0.5,0.3c-0.6,0.2-1.1,0.4-1.7,0.6
			c-1.8,0.6-3.6,0.9-5.5,1.1C9.2,23,4.2,21.2,2,16.5C-0.3,11.4,1.9,4.8,6.8,2.1c3.9-2.2,9.1-1.6,12.9,0.7c5.7,3.5,5.9,10.9,2.6,16.2
			l0.9-0.2c-0.6-0.3-2-0.8-2.1-1.5c-0.2-1,0-2.2,0-3.2V7.3c0-0.5-0.9-0.4-1.1,0l-3.6,10.4l1.1-0.1L14,7.2c-0.1-0.4-1-0.2-1,0.2v10.4
			l0.6-0.4H5.4l0.5,0.4l5.7-10.4C11.7,7.1,11.3,7,11.1,7H5.4C4.8,7,4.5,7.8,5.3,7.7L5.3,7.7z"/>
	</g>
</g>
</svg>
