<svg xmlns="http://www.w3.org/2000/svg" viewBox="0 0 25.51 23.45"><title>Logo sml</title><g id="Layer_2" data-name="Layer 2"><g id="Layer_1-2" data-name="Layer 1"><g id="Layer_1-2-2" data-name="Layer 1-2"><path d="M5.25,7.75H11l-.46-.42L4.88,17.77c-.18.31.24.41.45.41h8.12c.19,0,.6-.17.6-.41V7.33L13,7.52,16.47,18c.13.39.93.25,1.05-.09L21.1,7.42H20.05v7.27a25.16,25.16,0,0,0,0,2.88c.1.93,1.63,1.42,2.34,1.83a.74.74,0,0,0,.93-.25C26.38,14.1,26.6,7,21.64,3.08A14.64,14.64,0,0,0,8,.76,12.36,12.36,0,0,0,.19,14.35c1,5.57,6,8.86,11.45,9.09a23,23,0,0,0,7.24-1,10.74,10.74,0,0,0,3.67-1.42c.56-.46-.31-.77-.71-.45-.08.07,0,0-.13.08l-.54.25a17.7,17.7,0,0,1-1.72.63A23.61,23.61,0,0,1,14,22.66C9.15,23,4.16,21.19,2,16.51A11.54,11.54,0,0,1,6.79,2.09c4-2.19,9.12-1.58,12.86.75,5.67,3.54,5.86,10.87,2.64,16.2l.93-.25c-.58-.34-2-.81-2.09-1.51a23.21,23.21,0,0,1,0-3.23V7.33c0-.5-.93-.37-1.06,0L16.49,17.77l1.05-.1L14,7.23C13.9,6.82,13,7,13,7.42V17.85l.6-.41H5.44l.46.41L11.56,7.43c.17-.32-.25-.42-.46-.42H5.36c-.59,0-.84.74-.11.74Z"/></g></g></g></svg>