<svg xmlns="http://www.w3.org/2000/svg" viewBox="0 0 3207 1178.65"><defs><style>.cls-1,.cls-12{opacity:0.8;}.cls-12,.cls-2{fill:#7d9fd3;}.cls-3{fill:#4b83c4;}.cls-4{fill:#2677bd;}.cls-5{fill:#1d76bc;}.cls-6{fill:#90acd9;}.cls-7{fill:#377cc0;}.cls-8{fill:#3e7ec1;}.cls-9{fill:#6a93cc;}.cls-10{fill:#2778bd;}.cls-11{fill:#2d79be;}.cls-13{fill:#4380c2;}.cls-14{fill:#327bbf;}.cls-15{fill:#4d84c4;}.cls-16{fill:#347bbf;}.cls-17{fill:#2c79be;}.cls-18{fill:#2377bd;}.cls-19{fill:#5688c7;}.cls-20{fill:#2477bd;}</style></defs><title>Asset 2</title><g id="Layer_2" data-name="Layer 2"><g id="Layer_1-2" data-name="Layer 1"><g class="cls-1"><path class="cls-2" d="M80.55,557.87a1379.2,1379.2,0,0,1-50.9-175.24L0,346.37,58.22,372c25.69,6.61,52.83,11.76,80.44,16.59l41.64,7.13c13.92,2.38,27.82,4.8,41.61,7.55,55.14,10.9,108.19,24.92,151.14,51-24.27-3-52.7-1-79.71,1.51L267,458.22c-16.92,1.56-32.37,2.71-44.75,2.11l6.82-5.86c-17.16,13.72-34.28,27.69-51.39,41.55l-55.08,2.84L177.7,496,80.55,557.87"/><path class="cls-2" d="M1671,284.83l-2.42-1.18L1681,269.14c25.39-9,50.8-18.06,75.73-28,12.46-5,24.8-10.23,37-15.82s24.14-11.41,35.87-17.79a517.18,517.18,0,0,1,88.52-28.12q22.71-5,46-8,11.66-1.5,23.43-2.51c7.86-.67,15.77-1.17,23.72-1.44,12.72-.45,25.56-.5,38.54-.08-25.34,14.78-50.65,29.51-75.91,44.52-2.54,0-5.08.15-7.59.26-54.69,2.3-103.87,17.65-151.66,33.74-12,4-23.81,8.19-35.66,12.17s-23.67,7.85-35.54,11.36c-23.76,7-47.71,12.69-72.41,15.47"/><path class="cls-3" d="M2038,50.65c29.3-10.15,59.62-19,90.45-27.31q23.12-6.19,46.56-12l23.45-5.77L2222,0l.75,23.4c-8.7,1.28-17.53,3-26.46,5l-27.09,6.33c-18.25,4.18-36.86,7.86-55.7,8.53a146.38,146.38,0,0,1-31.25-2l7.59,4.93L2038,50.65"/><polyline class="cls-3" points="2172.07 64.08 2199.62 55.29 2227.19 46.67 2234.76 51.65 2203.41 57.78 2172.07 64.08"/><polyline class="cls-3" points="1678.96 745.62 1664.07 738.51 1682.47 742.84 1678.96 745.62"/><path class="cls-3" d="M2244.39,930.55c-8.55-4.08-17.1-8.19-25.65-12.2,8.55,4,17.1,8.12,25.65,12.2"/><polyline class="cls-3" points="2218.74 918.35 2215.13 918.48 2218.74 918.35"/><polyline class="cls-3" points="2556.48 175.78 2537.73 163.22 2556.48 175.78"/><polyline class="cls-3" points="2350.93 870.18 2343.53 865.2 2350.93 870.18"/><polyline class="cls-3" points="955.96 195.28 912.3 167.59 955.96 195.28"/><polyline class="cls-3" points="1664.07 738.51 1633.98 719.16 1664.07 738.51"/><polyline class="cls-3" points="2507.13 119.72 2481.07 112.51 2503.4 117.2 2507.13 119.72"/><polyline class="cls-3" points="2590.03 190.61 2556.48 175.78 2578.8 183.08 2590.03 190.61"/><polyline class="cls-3" points="2351.22 102.84 2391.59 88.64 2399.07 91.03 2391.59 88.64 2399.07 91.03 2399.14 93.63 2351.22 102.84"/><path class="cls-3" d="M2555.81,144.6l-48.68-24.88-26.05-7.21,22.32,4.69c-48.63-22.23-101-42-157-53.24l-7,13.22L2376.53,80c12.38.94,24.76,1.84,37.14,2.89q-11,2.84-22.09,5.76l7.49,2.39,14.87,2.24-14.81.36,74.68,24.26-30.06-17.51,37.45,17.34-7.39.17,33.74,20,48.26,6.69m-74.61-26.88,7.41-.17-7.41.17"/><polyline class="cls-4" points="2503.4 117.2 2481.07 112.51 2503.4 117.2"/><polyline class="cls-4" points="2399.07 91.03 2391.59 88.64 2399.07 91.03"/><polyline class="cls-3" points="2645.49 194.79 2626.94 189.9 2600.95 182.56 2522.6 147.96 2507.55 137.91 2555.81 144.6 2600.68 169.57 2645.49 194.79"/><polyline class="cls-3" points="2413.94 93.27 2399.14 93.63 2399.07 91.03 2413.94 93.27"/><polyline class="cls-4" points="2413.94 93.27 2399.14 93.63 2413.94 93.27"/><polyline class="cls-3" points="2652.93 197.25 2638.41 195.71 2626.94 189.9 2645.49 194.79 2652.93 197.25"/><polyline class="cls-3" points="2641.87 197.44 2638.41 195.71 2641.87 197.44"/><path class="cls-3" d="M2631.94,195c-14-1.49-27.94-3-41.91-4.41,7.38-.16,14.76-.36,22.15-.46l19.76,4.87"/><polyline class="cls-4" points="2399.07 91.03 2391.59 88.64 2399.07 91.03"/><polyline class="cls-3" points="2641.87 197.44 2631.94 195.02 2641.87 197.44"/><polyline class="cls-3" points="2638.41 195.71 2631.94 195.02 2612.18 190.15 2600.95 182.56 2626.94 189.9 2600.95 182.56 2626.94 189.9 2638.41 195.71"/><polyline class="cls-4" points="2641.87 197.44 2631.94 195.02 2638.41 195.71 2641.87 197.44"/><polyline class="cls-4" points="2631.94 195.02 2612.18 190.15 2631.94 195.02"/><polyline class="cls-4" points="2626.94 189.9 2600.95 182.56 2626.94 189.9"/><path class="cls-3" d="M2612.18,190.15c-7.39.1-14.77.3-22.15.46l-11.23-7.53c11.13,2.36,22.25,4.63,33.38,7.07"/><polyline class="cls-4" points="2590.03 190.61 2578.8 183.08 2590.03 190.61"/><path class="cls-4" d="M2612.18,190.15c-7.39.1-14.77.3-22.15.46,7.38-.16,14.76-.36,22.15-.46"/><path class="cls-3" d="M2612.18,190.15c-11.13-2.44-22.25-4.71-33.38-7.07L2560,167.91l37.25,14.74,3.69-.09,11.23,7.59"/><path class="cls-4" d="M2612.18,190.15c-11.13-2.44-22.25-4.71-33.38-7.07,11.13,2.36,22.25,4.63,33.38,7.07"/><polyline class="cls-4" points="2488.61 117.55 2481.2 117.72 2488.61 117.55"/><polyline class="cls-3" points="2481.2 117.72 2473.81 117.89 2443.75 100.38 2481.2 117.72"/><polyline class="cls-4" points="2481.2 117.72 2473.81 117.89 2481.2 117.72"/><polyline class="cls-4" points="2473.81 117.89 2443.75 100.38 2473.81 117.89"/><polyline class="cls-3" points="2522.6 147.96 2500.24 140.68 2507.55 137.91 2522.6 147.96"/><polyline class="cls-3" points="2600.95 182.56 2597.26 182.65 2522.6 147.96 2600.95 182.56"/><polyline class="cls-4" points="2600.95 182.56 2597.26 182.65 2600.95 182.56 2597.26 182.65 2600.95 182.56"/><polyline class="cls-5" points="2600.95 182.56 2597.26 182.65 2600.95 182.56"/><polyline class="cls-3" points="2313.49 704.81 2258.2 680.43 2320.69 702 2313.49 704.81"/><polyline class="cls-3" points="2288.4 715.96 2236.22 675.87 2302.72 710.34 2288.4 715.96"/><path class="cls-3" d="M2251,797.69c-25.39-.61-49.88-1-73.1-4.07s-45.18-8.79-65.53-19.77l69.22,7.93-3.63.13,36.53,7.8c12.17,2.58,24.34,5.33,36.51,8"/><path class="cls-3" d="M2251,797.69c-12.17-2.65-24.34-5.4-36.51-8l-36.53-7.8,3.63-.13,34.71,7.87c11.57,2.62,23.13,5.37,34.7,8"/><path class="cls-4" d="M2251,797.69c-12.17-2.65-24.34-5.4-36.51-8l-36.53-7.8,36.53,7.8c12.17,2.58,24.34,5.33,36.51,8"/><polyline class="cls-3" points="2273.94 718.99 2255.38 706.53 2288.4 715.96 2273.94 718.99"/><path class="cls-3" d="M2422.51,704.24c-7.31-1.59-14.62-3.06-21.93-4.6,7.31,1.54,14.62,3,21.93,4.6"/><path class="cls-6" d="M3163.31,607.87l18.2-7.88,25.49-20.9c-40.13-15.43-80.33-30.86-127.81-35.87l14.65,10.36c-25.55-1.19-47.48-7.6-68.52-14.66l-15.66-5.34q-7.78-2.64-15.57-5.08a244.7,244.7,0,0,0-31.92-7.87c15.6,7.65,32.31,14.27,49.53,20.62s34.94,12.53,52.53,19c35.2,12.85,69.89,27,99.08,47.67"/><polyline class="cls-3" points="2885.74 544.83 2871.09 542.41 2885.74 544.83"/><polyline class="cls-3" points="3079.2 543.22 3057.27 540.74 3079.2 543.22"/><polyline class="cls-3" points="2907.71 552.42 2885.74 544.83 2907.71 552.42"/><polyline class="cls-3" points="2413.41 634.24 2391.43 629.69 2369.15 614.74 2413.27 629.05 2413.41 634.24"/><polyline class="cls-3" points="2413.54 639.44 2391.43 629.69 2413.41 634.24 2413.54 639.44"/><polyline class="cls-3" points="2421.7 673.04 2403.24 663.15 2358.82 635.85 2413.89 652.43 2421.7 673.04"/><polyline class="cls-3" points="2421.76 675.64 2403.24 663.15 2421.7 673.04 2421.76 675.64"/><path class="cls-3" d="M2425.61,683.34c-17.22-9.14-34.45-18.08-51.7-27.12l29.33,6.93,18.52,12.49,3.85,7.7"/><path class="cls-6" d="M2413.27,629.05l-44.12-14.31,22.28,15c-40.26-6.62-87.66-7.83-128.17-19.66,21.32-5.37,42.75-7.62,64.18-8.25,18.43-.54,36.88.1,55.34.94l27.69,1.3c9.23.4,18.45.83,27.67,1l-24.87,24"/><polyline class="cls-7" points="2413.27 629.05 2369.15 614.74 2413.27 629.05"/><path class="cls-3" d="M2456.23,599.43c-13.76-3.59-28-6.67-42.19-9.79s-28.43-6.11-42.22-9.77c-27.57-7.32-53.4-17-74-33.27,4-.36,7.93-.57,11.82-.69,37.71-1.11,70.07,9.1,102.53,19.3,32.46,10.39,65,20.81,103.26,19.92,2,0,4-.11,6.11-.22-18.5-11.27-42.46-21.12-66.44-31-12-4.92-24-9.85-35.31-15a303.87,303.87,0,0,1-31.25-15.86q11.05,3.57,22,7.38c7.27,2.56,14.49,5.24,21.67,8q21.52,8.16,42.6,17c28.12,11.7,55.77,24.06,83.39,36.43l-101.93,7.57"/><polyline class="cls-3" points="2366.69 526.37 2288.5 479.23 2321.72 488.68 2366.69 526.37"/><polyline class="cls-3" points="2184.93 448.66 2173.89 446.45 2170.15 443.98 2184.93 448.66"/><path class="cls-3" d="M2251.68,472.53l-18.54-7.25L2209,456.9l-24.11-8.24-11-2.21,38.91,12.92,38.88,13.16m-18.54-7.25L2209,456.9l-24.11-8.24L2209,456.9l24.1,8.38"/><path class="cls-3" d="M2321.72,488.68l-33.22-9.45-55.36-14L2209,456.9l-24.11-8.24L2170.15,444l3.74,2.47-71.15-41.68,80.89,4.91c10.35,7.45,21.36,14.32,32.75,21s23.18,13.09,35.06,19.41c23.76,12.63,47.93,24.92,70.28,38.57"/><polyline class="cls-4" points="2321.72 488.68 2288.5 479.23 2321.72 488.68"/><polyline class="cls-4" points="2184.93 448.66 2170.15 443.98 2184.93 448.66"/><polyline class="cls-4" points="2233.14 465.28 2209.04 456.9 2184.93 448.66 2209.04 456.9 2233.14 465.28"/><polyline class="cls-4" points="2233.14 465.28 2209.04 456.9 2184.93 448.66 2209.04 456.9 2233.14 465.28"/><path class="cls-3" d="M2161.05,392.27c-40.62-6.35-77.67-15.43-107.82-35.18l87.85-10.93-10.46,16,30.43,30.12"/><polyline class="cls-3" points="1359.99 885.58 1326.22 866.82 1336.73 860.95 1359.99 885.58"/><path class="cls-8" d="M374.12,986.76A1356.76,1356.76,0,0,1,264.42,869c-16.75-20.36-32.75-40.91-48.09-62s-30-42.67-44.08-64.79l54.78-1.5,13.69-.37,13.7-.28,27.4-.58c59.59,3.65,120.13,18.12,166.45,42.86,46.35,24.93,78.45,59.89,81.46,104a111.71,111.71,0,0,1-4.88,40,413,413,0,0,0-39.75,11.49c-13.11,4.5-26.07,9.45-38.74,14.91-25.36,10.83-49.68,22.87-72.24,34.08"/><path class="cls-3" d="M800,916.54l-15.24-9.21c24.45-12.36,26-38.65,69.2-44.59-5.27,26.39-29.75,38.85-54,53.8"/><path class="cls-9" d="M665.55,958.59a119.59,119.59,0,0,0-25.16-20.12,116.61,116.61,0,0,0-27.32-11.79c-18.79-5.42-38.62-6.31-58.69-4.58a295,295,0,0,0-29.53,4.18,111.71,111.71,0,0,0,4.88-40c-3-44.1-35.11-79.06-81.46-104C402,757.55,341.41,743.08,281.82,739.43q67.77-2.85,135.41-6.59l67.65-3.79q33.81-2,67.59-4.33c30-2.07,60-4.47,90-7q65.24-5.21,130.32-12.22c21.7-2.34,43.38-4.91,65.06-7.56s43.35-5.33,65-8.29l-12.66-22.53c-21-.64-42.12-.28-63.14.7-20.42,1-40.78,2.57-61,4.18l-18.84,1.53c-37.58,3-74.44,5.71-110.06,5.07-35.52-.47-69.77-4.09-102.19-14.19a632.45,632.45,0,0,1,73.16-19q9.3-1.83,18.66-3.41c6.24-1,12.51-1.95,18.78-2.8q18.84-2.52,37.83-4A749,749,0,0,1,784.39,634q18.9,1,37.69,3c12.51,1.29,25,3,37.36,4.94,24.76,3.9,49.21,8.94,73.14,15.07s47.33,13.34,70,21.56c11.35,4.13,22.52,8.44,33.49,13.12s21.75,9.59,32.3,14.74c30.12,13.59,74.2,18.46,118.08,20.72l-62-1-5.68,23.84,86.94,48.88-22-3.74-80.73-10.21-73.36-8.06a218.42,218.42,0,0,0-45.25-1.14h0c-46.95,3.46-94,19.77-145.33,33.43l62.51,8.43c10.77,7,16.27,14.51,17.81,22.19,3.27,16.58-12.38,33.85-35,48.49a247.21,247.21,0,0,1-37.6,19.58,268.86,268.86,0,0,1-39.06,13.37L800,916.54c24.21-14.95,48.69-27.41,54-53.8-43.17,5.94-44.75,32.23-69.2,44.59l-16.89-30L715.25,855.5c22-43.49-64-26.18-59.78-63-14.85-3.2-29.7-6.21-44.55-9.29L566.34,774l-43.72,42.9c34.37,17.92,69.63,36.42,96.53,58.89C632.6,887,644,899.21,652.07,912.87a93.56,93.56,0,0,1,13.48,45.72"/><path class="cls-10" d="M529.73,886.28c-3-44.1-35.11-79.06-81.46-104C402,757.55,341.41,743.08,281.82,739.43c59.59,3.65,120.13,18.12,166.45,42.86,46.35,24.93,78.45,59.89,81.46,104"/><path class="cls-11" d="M784.79,907.33c24.45-12.36,26-38.65,69.2-44.59-43.17,5.94-44.75,32.23-69.2,44.59"/><path class="cls-3" d="M1258.39,826.67l-26.33-14-26.35-13.86-22-3.74-80.73-10.21-3.27,5.44,70.19,16.12L1093.68,809c30.19,16.2,66.53,16.37,103,19.13,20.55-.5,41.1-1.09,61.66-1.42m-74.73-31.59-80.73-10.21,80.73,10.21"/><polyline class="cls-4" points="1183.66 795.08 1102.93 784.87 1183.66 795.08"/><polyline class="cls-3" points="789.59 922.6 784.79 907.33 800.03 916.54 789.59 922.6"/><polyline class="cls-3" points="409.49 490.01 404.2 472.23 409.49 490.01"/><path class="cls-12" d="M849.35,1178.65c-49.31-32.58-60-75.42-60.38-120.7s9.4-93,.62-135.35L800,916.54l7.63,4.62a268.86,268.86,0,0,0,39.06-13.37,247.21,247.21,0,0,0,37.6-19.58c22.59-14.64,38.24-31.91,35-48.49-1.54-7.68-7-15.17-17.81-22.19L839,809.1c51.31-13.66,98.38-30,145.33-33.43a218.58,218.58,0,0,1,45.27,1.14l73.36,8.06-3.27,5.44-66-6c38,23.46,88.92,22.68,136.14,22.09L1093.68,809c30.19,16.2,66.53,16.37,103,19.13l-10,13.7,46.71,49L1148,860l-27.12,27.88c31.86,42.17,71.53,94.21,131.41,126.69-39.08-18.25-74.12-42.58-112.63-63.45-19.26-10.44-39.39-20-61.31-27.48a281.13,281.13,0,0,0-72.1-14.78l-5.5,23.89L978,918.8c14.23,21.1,35.22,35.85,55.71,50.64s40.53,29.77,52.82,51.07l-33.8-18.57-33.84-18.37c5.65,28.26,39.46,46.58,51.88,69.27-13.91-8.08-25.2-19.38-35.3-31.82s-19-26-28.12-38.38c-18.24-24.81-37.32-45.06-68.48-42.76-.93.06-1.88.13-2.83.23l-4.39.3c-55.48,4.1-81.21,30.28-86.55,64.16-2.68,16.9-.28,35.66,6,54.43a180.1,180.1,0,0,0,12.19,28,208.38,208.38,0,0,0,17.14,26.71c-7.5-3.79-15-7.63-22.51-11.36-38.23,18.72.42,52.13-8.52,76.34"/><path class="cls-13" d="M919.29,839.72c-1.54-7.68-7-15.17-17.81-22.19L839,809.1l62.51,8.43c10.77,7,16.27,14.51,17.81,22.19"/><path class="cls-13" d="M839,809.1c51.31-13.66,98.38-30,145.33-33.43-46.95,3.46-94,19.77-145.33,33.43"/><polyline class="cls-14" points="1169.85 806.43 1093.68 808.96 1169.85 806.43"/><polyline class="cls-14" points="1099.66 790.31 1102.93 784.87 1099.66 790.31"/><path class="cls-12" d="M1306.9,730l14.16-6.08,17.24-16.68-22.11-3.86,22.11,3.86,2.38-21L1288,660.76l29.55,6-45.39-25.88,55.69,14.84-.79-13-18.83-9.27c-22.15-3.86-45.07-5.06-67.58-7q-8.45-.71-16.79-1.58c-5.56-.58-11.07-1.24-16.52-2.06a210,210,0,0,1-31.84-7.06,313.12,313.12,0,0,1,55.93-8.23c39.83-2.43,80.54.46,122.73-.36l14.26-6.08c-27.81-6.12-57.32-10.18-85.17-16.63a287.74,287.74,0,0,1-40.1-12,155.08,155.08,0,0,1-35.08-18.82c4-.53,7.89-.91,11.75-1.17,75.52-4.59,130.89,36.74,207.35,32.15,2-.11,4-.29,6.08-.43a273.69,273.69,0,0,0-31.73-14.91c-11.48-4.68-23.64-9.15-35.81-13.62-24.34-8.93-48.69-17.87-67.67-28.43,29.85,8.61,58.85,18.56,87.4,29.2,14.27,5.34,28.42,10.76,42.53,16.42s28.15,11.4,42.18,17.14l7.3-.4c36.74,3.2,71.68,7.15,105.69,11.15l25.34,3,12.57,1.49,12.52,1.54c16.65,2,33.18,4,49.71,5.81l-42.76-14.85-21.39-7.42-21.4-7.29,21.4,7.29,21.39,7.42,42.76,14.85c26.65,3.91,52.84,7.85,78.75,11.93q19.42,3,38.65,6.23l19.21,3.22,19.16,3.41c51,9.24,101.56,19.48,153,31.63l-82.08-46c49.89-28.08,108.52-22.91,155.52-34.84-19.31-3.84-38-8.62-56.26-13.52s-36.19-10.07-54-15c-35.58-9.9-70.71-18.83-107.45-22.48,36.74,3.65,71.87,12.58,107.45,22.48,17.79,4.94,35.7,10.13,54,15s37,9.68,56.26,13.52L2080,585.1a340.06,340.06,0,0,0-50.35-25.2q-6.57-2.68-13.23-5.2T2003,549.88c-9-3.12-18-6.08-27-9-36.11-11.49-72.21-21.68-104-36,44.22,5.94,81.71,27.79,132.87,28.24l-15-9.78-22.06-1.68,22.06,1.68c23.84,1.54,46,6,67.18,11.75s41.6,12.82,62,19.9c42.56-35.3,92.63-71.11,143.79-75.09l25.59-.76-55.36-14,18.54,7.25-38.88-13.16-38.91-12.92-71.15-41.68,80.89,4.91-22.58-17.41c-40.62-6.35-77.67-15.43-107.82-35.18l87.85-10.93,50.3-35.62-8.81-43.91c-32.42-33.22-84.23-51.83-145.7-49.63-3.64.13-7.33.32-11,.59l5.14,38.84-19.38-25.32c-10.69,9.9-21.37,20-32,29.93l-33.37-3.82c-17.46,24.17-41.11,31.67-66.86,32.76s-53.63-4.29-79.52-5.73c7.56,3.95,15.12,8,22.67,12-5.51,8.57-11.74,14.33-18.44,18.08a47.46,47.46,0,0,1-21.29,5.83c-22.27,1.07-46.6-9.95-66.69-13.67l-45-21.68c-1.38.15-2.64.49-4,.62l1.53-1.8-1.66-.8-63-4.76L1570,264.32l-19.13-12,19.13,12,22.51,6.59-19.23-14.57c12.51,3.67,25,7.27,37.5,11l-75.44-29.78-26.23-6.37,7.24-3-34.34-18.95-71.73-24.72-11.89,2.6-11.89,2.68-23.77,5.35,40-12.83,21.85-6.39c-24.78-1.32-49.54-2.36-74.31-3.46l2.93-13.21c-30-6-67.32-8.92-104.44-9.26l-3.67.22-31.09,7.11c-10.36,2.37-20.72,4.73-31.07,7.19q13.59-4.86,27.21-9.56l27.23-9.47-5.15-23.13c-35.52,4.13-72.6,20.55-111,23.12a133.62,133.62,0,0,1-28.63-.95l7.71,4.69-55.22,6.32q-23,9.21-45.3,19.11C985,181.28,970.35,188.22,956,195.28l26.3,16.7L956,195.28c-51.77,25.41-100.15,53.57-143.47,84.89C801.65,288,791.14,296.1,781,304.39s-20,16.8-29.46,25.5a556.37,556.37,0,0,0-52.18,54.76c25.07-9.81,50.15-19.63,74.25-30.36,12-5.35,23.86-11,35.3-16.85s22.52-12,33.11-18.69a594.67,594.67,0,0,1,97.85-33.14q24.81-6.06,50.09-10,12.66-2,25.45-3.33t25.74-2.24c7.6-.51,15.2-.89,22.88-1.14l-37.22,23.35c-12.4,7.78-24.8,15.54-37.17,23.44l3.68-.27L976,332.36l13.59-16.64C930.8,320,880.38,338.09,831.45,356.35c-24.47,9.06-48.55,18.49-73.15,26.18S708.58,396.32,682,399.09l17.29-14.44-91.61,30.83-91.41,31.36-63.64,73.34,58.91.14L479.84,536.1c-4.4,5-22.59,13.58-23.89,20.19-1.62,8.49,24.56,13.68,143.57,3.43,20.51-3.56,41.05-6.9,61.59-10.28q-12.69,4.92-25,10t-24.23,10.37c-15.87,7.12-31.2,14.56-45.9,22.51-29.39,15.91-56.28,33.9-80,55.52L535,664.44a633.1,633.1,0,0,1,73.14-19q9.32-1.83,18.67-3.41c6.24-1,12.51-1.95,18.79-2.8q18.84-2.52,37.83-4A753.89,753.89,0,0,1,784.39,634q18.9,1,37.69,3c12.51,1.29,25,3,37.36,4.94,24.76,3.9,49.21,8.94,73.14,15.07s47.33,13.34,70,21.56c11.35,4.13,22.52,8.44,33.49,13.12s21.75,9.59,32.3,14.74c30.12,13.59,74.2,18.46,118.08,20.72l7.26-.49-22.63-11.52,33.34,8.2-53.56-38.09,67.74,31.92,10.57-5.94L1173,688.94l63.28,19.26,13.89-11.27,56.73,33m511.76-191.51c55.6,15.88,104.33,45,174,52.54-69.66-7.49-118.39-36.66-174-52.54l-22.27-6.74-14.72-1.9,14.72,1.9,22.27,6.74-3.3,8-58.77-5,58.77,5,3.3-8m-302.37,25.64c25.59-.08,47.12,9.16,68.17,18.43,10.53,4.63,20.94,9.27,31.68,12.75s21.83,5.93,33.7,6c-11.87-.06-22.95-2.5-33.7-6s-21.15-8.12-31.68-12.75c-21-9.27-42.58-18.51-68.17-18.43m-43.78,2.4-3.65.2-36.78-3.18,36.78,3.18,3.65-.2c44.37,8,78.3,27,122.41,32.38-44.11-5.4-78-24.37-122.41-32.38m306.59-13.13-21.53,8.86,21.53-8.86M754,515.94l-92.87,33.5L754,515.94m0,0-92.87,33.5L754,515.94m0,0,14.4-3.76,14.21-6.34L797,502.07l13.47-6,1.4-.52L825.66,492l14.23-6.25,14.43-3.68,14.26-6.28,14.24-6.24,10.78-3.4,14.25-6.27,14.27-6.25,14.23-6.27,10.64-6,14.27-6.26,10.4-8.58c-55.92,11.08-102.74,33.21-148.9,56l-5,2.21L814,486.93l-17,8.45-4.07,1.8-14.17,6.35L770.91,508c-5.64,2.68-11.23,5.37-16.93,7.92m-242.4,4.38c6.39-.13,12.86-.5,19.41-1.07,4.44-.38,9-1.15,13.45-1.77l14.64-1.26,14.35-3.85,18.09-4.15,8.48-3.86c7.76-2.66,15.49-5.81,23.23-9.18l.31-.14,14.2-6.33L623.54,495l14.2-6.33L623.54,495l-.12,0c4.78-2.12,9.54-3.95,14.32-6.38a119.22,119.22,0,0,1-18.49,7.46l-10.15,2.7-18,4.16-5.68,1.51c-5.59,1.07-11.26,2.08-16.94,3l-10.05.87-10.28,2.74c-12.75,2.41-25.19,5.13-36.56,9.12M2031,256.43l.3,7.81,15.06,7.26L2031,256.43"/><path class="cls-2" d="M754,515.94c18.71-6.69,37.63-13.23,56.51-19.9l-13.47,6-14.43,3.77-14.21,6.34L754,515.94"/><path class="cls-2" d="M770.91,508l7.84-4.49,14.17-6.35,4.07-1.8q-12.91,6.44-26.08,12.64"/><path class="cls-2" d="M811.89,495.52c56.5-19.62,112.45-40.26,159.77-69l-10.4,8.58L947,441.38l-10.64,6-14.23,6.27-14.27,6.25-14.25,6.27-10.78,3.4-14.24,6.24-14.26,6.28-14.43,3.68L825.66,492l-13.77,3.51"/><path class="cls-2" d="M814,486.93l3.77-2.15,5-2.21L814,486.93"/><path class="cls-15" d="M1667.09,285.45l1.53-1.8,2.42,1.18c-1.38.15-2.64.49-4,.62"/><polyline class="cls-14" points="982.26 211.98 955.96 195.28 982.26 211.98"/><polyline class="cls-14" points="2251.68 472.53 2233.14 465.28 2251.68 472.53"/><polyline class="cls-14" points="2183.63 409.68 2102.74 404.77 2183.63 409.68"/><polyline class="cls-14" points="2053.23 357.09 2141.08 346.16 2053.23 357.09"/><polyline class="cls-16" points="753.98 515.94 768.38 512.18 782.59 505.83 797.02 502.07 810.49 496.04 797.02 502.07 782.59 505.83 768.38 512.18 753.98 515.94"/><polyline class="cls-16" points="770.91 508.02 778.75 503.53 792.92 497.18 796.99 495.38 792.92 497.18 778.75 503.53 770.91 508.02"/><polyline class="cls-16" points="811.89 495.52 825.66 492.01 839.89 485.76 854.32 482.08 868.58 475.8 882.82 469.56 893.6 466.16 907.85 459.89 922.12 453.64 936.35 447.37 946.99 441.38 961.26 435.12 971.66 426.54 961.26 435.12 946.99 441.38 936.35 447.37 922.12 453.64 907.85 459.89 893.6 466.16 882.82 469.56 868.58 475.8 854.32 482.08 839.89 485.76 825.66 492.01 811.89 495.52"/><polyline class="cls-16" points="813.97 486.93 817.74 484.77 822.76 482.57 817.74 484.77 813.97 486.93"/><polyline class="cls-16" points="661.11 549.44 753.98 515.94 661.11 549.44"/><polyline class="cls-16" points="661.11 549.44 753.98 515.94 661.11 549.44"/><path class="cls-13" d="M1186.48,727.14c-43.88-2.26-88-7.13-118.08-20.72q-15.83-7.73-32.3-14.74c-11-4.68-22.14-9-33.49-13.12-22.7-8.22-46.11-15.43-70-21.56s-48.38-11.17-73.14-15.07c-12.38-1.94-24.85-3.65-37.36-4.94s-25.09-2.29-37.69-3q18.9,1,37.69,3c12.51,1.29,25,3,37.36,4.94,24.76,3.9,49.21,8.94,73.14,15.07s47.33,13.34,70,21.56c11.35,4.13,22.52,8.44,33.49,13.12s21.75,9.59,32.3,14.74c30.12,13.59,74.2,18.46,118.08,20.72"/><path class="cls-13" d="M535,664.44a633.1,633.1,0,0,1,73.14-19q9.32-1.83,18.67-3.41c6.24-1,12.51-1.95,18.79-2.8q18.84-2.52,37.83-4-19,1.51-37.83,4c-6.27.85-12.54,1.75-18.78,2.8s-12.46,2.19-18.66,3.41a632.45,632.45,0,0,0-73.16,19"/><path class="cls-2" d="M559.08,516.22l-14.64,1.26A283.76,283.76,0,0,0,600,504.36l-8.48,3.86-18.09,4.15-14.35,3.85"/><path class="cls-2" d="M548.14,511.2l10.28-2.74,10.05-.87c-6.83,1.15-13.59,2.36-20.33,3.61"/><path class="cls-2" d="M585.41,504.54l5.68-1.51,18-4.16,10.15-2.7a261.9,261.9,0,0,1-33.84,8.37"/><path class="cls-2" d="M623.23,495.18a.84.84,0,0,1,.19-.09l.12,0-.31.14"/><polyline class="cls-3" points="420.68 491.62 427.77 488.39 420.68 491.62"/><path class="cls-8" d="M452.67,520.18c-11.53-.31-23-1-34.52-1.83s-22.94-1.87-34.38-3.08c-22.9-2.41-45.74-5.44-68.59-8.38s-45.7-5.81-68.6-7.89c-11.45-1-22.92-1.92-34.4-2.43s-23-.71-34.48-.55c17.11-13.86,34.23-27.83,51.39-41.55l-6.82,5.86c12.38.6,27.87-.52,44.79-2.09l26.28-2.52c27-2.5,55.44-4.48,79.71-1.51l31.15,18,.23,2.58,5.06,15.2-20.58,17.57,31.77-16,7.09-3.23,88.54-41.55-63.64,73.34"/><path class="cls-17" d="M267.06,458.24c-16.92,1.57-32.41,2.69-44.79,2.09,12.38.6,27.83-.55,44.75-2.11l26.32-2.5-26.28,2.52"/><polyline class="cls-17" points="222.27 460.33 229.09 454.47 222.27 460.33"/><polyline class="cls-18" points="409.49 490.01 404.43 474.81 404.2 472.23 409.49 490.01"/><polyline class="cls-17" points="452.67 520.18 516.31 446.84 452.67 520.18"/><path class="cls-8" d="M451.93,688.7c-6.79.59-13.84.89-21.08,1s-14.68.09-22.26-.15c-15.16-.5-30.9-1.73-46.78-3.42-31.77-3.37-64.12-8.58-93.61-13.37,21.19-28.07,51.83-53.75,84.92-78.68s68.61-49.2,99.55-73.94l58.91.14L479.84,536.1c-4.4,5-22.59,13.58-23.89,20.19-1.62,8.49,24.56,13.68,143.57,3.43,20.51-3.56,41.05-6.9,61.59-10.28q-12.69,4.92-25,10t-24.23,10.37c-15.87,7.12-31.2,14.56-45.9,22.51-29.39,15.91-56.28,33.9-80,55.52L535,664.44l-28.42,10.27c-11,5.88-24.36,9.79-39.29,12.11-5,.79-10.06,1.42-15.39,1.88"/><path class="cls-17" d="M485.94,647.8c23.76-21.62,50.65-39.61,80-55.52,14.7-7.95,30-15.39,45.9-22.51q11.91-5.35,24.23-10.37t25-10q-12.69,4.92-25,10t-24.23,10.37c-15.87,7.12-31.2,14.56-45.9,22.51-29.39,15.91-56.28,33.9-80,55.52"/><path class="cls-17" d="M456,556.29c1.3-6.61,19.49-15.22,23.89-20.19l31.74-15.78L479.84,536.1c-4.4,5-22.59,13.58-23.89,20.19"/><path class="cls-19" d="M642.5,717.75c-30,2.5-60,4.9-90,7q-33.78,2.34-67.59,4.33l-67.65,3.79q-67.64,3.79-135.41,6.59a400.66,400.66,0,0,0-41.47-2.77,381.17,381.17,0,0,0-41,1.84q-13.62,1.35-27.09,3.66c-35.1-59.25-66.76-118.82-91.7-184.29L177.7,496c11.52-.16,23,.05,34.48.55s22.95,1.4,34.4,2.43c22.9,2.08,45.75,4.94,68.6,7.89s45.69,6,68.59,8.38c11.44,1.21,22.9,2.26,34.38,3.08s23,1.52,34.52,1.83c-30.94,24.74-66.46,49-99.55,73.94s-63.73,50.61-84.92,78.68c29.49,4.79,61.84,10,93.61,13.37,15.88,1.69,31.62,2.92,46.78,3.42,7.58.24,15,.31,22.26.15s14.29-.45,21.08-1h0c5.29-.45,10.38-1.08,15.35-1.87,14.93-2.32,28.25-6.23,39.29-12.11L535,664.44c32.42,10.1,66.67,13.72,102.19,14.19,35.62.64,72.48-2,110.06-5l18.85-1.53c20.2-1.61,40.56-3.17,61-4.2,21-1,42.1-1.34,63.14-.7l12.66,22.53q-32.49,4.46-65,8.31c-21.68,2.64-43.36,5.21-65.06,7.55q-65.09,7.07-130.32,12.21"/><path class="cls-14" d="M642.5,717.75q65.24-5.21,130.32-12.21c21.7-2.34,43.38-4.91,65.06-7.55s43.35-5.34,65-8.31q-32.49,4.44-65,8.29c-21.68,2.65-43.36,5.22-65.06,7.56q-65.09,7.07-130.32,12.22"/><path class="cls-14" d="M552.47,724.72q-33.78,2.34-67.59,4.33l-67.65,3.79q-67.64,3.79-135.41,6.59,67.77-2.85,135.41-6.59l67.65-3.79q33.81-2,67.59-4.33"/><path class="cls-14" d="M827.09,667.85c-20.4,1-40.76,2.59-61,4.2l-18.85,1.53c-37.58,3-74.44,5.69-110.06,5,35.62.64,72.48-2.07,110.06-5.07L766.12,672c20.19-1.61,40.55-3.15,61-4.18"/><path class="cls-20" d="M452,688.69h0c5.33-.46,10.42-1.09,15.39-1.88-5,.79-10.06,1.42-15.35,1.87"/><path class="cls-20" d="M268.2,672.8c21.19-28.07,51.83-53.75,84.92-78.68s68.61-49.2,99.55-73.94c-30.94,24.74-66.46,49-99.55,73.94s-63.73,50.61-84.92,78.68"/><path class="cls-3" d="M281.82,739.43l-27.4.58-13.7.28-13.69.37-54.78,1.5q13.49-2.31,27.09-3.66a381.17,381.17,0,0,1,41-1.84,400.66,400.66,0,0,1,41.47,2.77"/><polyline class="cls-18" points="281.82 739.43 254.43 740 240.72 740.29 227.03 740.66 172.25 742.16 227.03 740.66 240.72 740.29 254.43 740 281.82 739.43"/></g></g></g></svg>