<svg xmlns="http://www.w3.org/2000/svg" viewBox="0 0 1992.11 721.33"><defs><style>.cls-1,.cls-12{opacity:0.8;}.cls-12,.cls-2{fill:#ffe987;}.cls-3{fill:#ffe14d;}.cls-4{fill:#ffde23;}.cls-5{fill:#ffde19;}.cls-6{fill:#ffec9a;}.cls-7{fill:#ffdf36;}.cls-8{fill:#ffe03e;}.cls-9{fill:#ffe673;}.cls-10{fill:#ffde25;}.cls-11{fill:#ffdf2b;}.cls-13{fill:#ffe144;}.cls-14{fill:#ffdf31;}.cls-15{fill:#ffe250;}.cls-16{fill:#ffdf32;}.cls-17{fill:#ffdf2a;}.cls-18{fill:#ffde1f;}.cls-19{fill:#ffe35b;}.cls-20{fill:#ffde21;}</style></defs><title>paint-yellow</title><g id="Layer_2" data-name="Layer 2"><g id="Layer_1-2" data-name="Layer 1"><g class="cls-1"><path class="cls-2" d="M36.88,273.23A927.22,927.22,0,0,1,16.08,156L0,130.49l34.39,20.35c61.89,23.7,139.79,33.78,190.24,72.8-14.91-3.38-32.66-3.77-49.56-3.75L158.6,220c-10.59,0-20.25-.15-27.89-1.27l4.57-3.42L101,239.13l-34.37-1.64L101,239.13l-64.08,34.1"/><path class="cls-2" d="M1038,171.09l-1.47-.85,8.15-9.09c32.09-10.23,64.2-20.46,94.07-35.77a306.94,306.94,0,0,1,55.78-15.95,313.76,313.76,0,0,1,58.25-5.26q11.89,0,24,.88l-48.38,27.13c-1.58,0-3.17,0-4.73,0-68.21,0-123.91,34.73-185.66,39"/><path class="cls-3" d="M1272.26,28.54c18.44-5.94,37.53-11,56.89-15.59s39-8.8,58.75-12.95l-.07,15.31c-10.9,1.28-22.16,3.87-33.62,6.12s-23.11,4.21-34.85,4.17A86.51,86.51,0,0,1,1300,23.5l4.6,3.41-32.31,1.63"/><polyline class="cls-3" points="1355.32 40.66 1390.07 30.61 1394.67 34.03 1355.32 40.66"/><polyline class="cls-3" points="1029.04 472.28 1019.87 467.19 1031.33 470.58 1029.04 472.28"/><polyline class="cls-3" points="1380.52 608.58 1364.64 600 1380.52 608.58"/><polyline class="cls-3" points="1364.64 600 1362.37 600 1364.64 600"/><polyline class="cls-3" points="1592.98 122.37 1581.51 113.73 1592.98 122.37"/><polyline class="cls-3" points="1448.95 571.55 1444.41 568.13 1448.95 571.55"/><polyline class="cls-3" points="598.32 85.11 572.57 64.99 598.32 85.11"/><polyline class="cls-3" points="1019.87 467.19 1001.53 453.62 1019.87 467.19"/><polyline class="cls-3" points="1563.29 84.63 1547.13 79.34 1561.01 82.9 1563.29 84.63"/><polyline class="cls-3" points="1613.68 132.81 1592.98 122.37 1606.81 127.63 1613.68 132.81"/><polyline class="cls-3" points="1466.18 70.16 1491.7 61.84 1496.33 63.59 1491.7 61.84 1496.33 63.59 1496.31 65.29 1466.18 70.16"/><path class="cls-3" d="M1593.23,102l-29.94-17.34-16.16-5.29L1561,82.9c-15-7.84-30.54-15.17-46.71-21.7A385,385,0,0,0,1464,44.64l-4.68,8.47,46.28,5.46-13.94,3.27,4.63,1.75,9.25,1.78-9.27-.08,46.17,17.41-18.42-12.07,23,12.11-4.62,0,20.68,13.82,30.07,5.45M1547.1,82.74l4.64.05-4.64-.05"/><polyline class="cls-4" points="1561.01 82.9 1547.13 79.34 1561.01 82.9"/><polyline class="cls-4" points="1496.33 63.59 1491.7 61.84 1496.33 63.59"/><polyline class="cls-3" points="1648.36 136.71 1636.83 133.14 1620.7 127.81 1572.37 103.43 1563.16 96.52 1593.23 101.97 1648.36 136.71"/><polyline class="cls-3" points="1505.58 65.37 1496.31 65.29 1496.33 63.59 1505.58 65.37"/><polyline class="cls-4" points="1505.58 65.37 1496.31 65.29 1505.58 65.37"/><polyline class="cls-3" points="1652.97 138.47 1643.9 137.17 1636.83 133.14 1648.36 136.71 1652.97 138.47"/><polyline class="cls-3" points="1646.03 138.37 1643.9 137.17 1646.03 138.37"/><polyline class="cls-3" points="1639.86 136.59 1613.68 132.81 1627.57 133.01 1639.86 136.59"/><polyline class="cls-4" points="1496.33 63.59 1491.7 61.84 1496.33 63.59"/><polyline class="cls-3" points="1646.03 138.37 1639.86 136.59 1646.03 138.37"/><polyline class="cls-3" points="1643.9 137.17 1639.86 136.59 1627.57 133.01 1620.7 127.81 1636.83 133.14 1620.7 127.81 1636.83 133.14 1643.9 137.17"/><polyline class="cls-4" points="1646.03 138.37 1639.86 136.59 1643.9 137.17 1646.03 138.37"/><polyline class="cls-4" points="1639.86 136.59 1627.57 133.01 1639.86 136.59"/><polyline class="cls-4" points="1636.83 133.14 1620.7 127.81 1636.83 133.14"/><polyline class="cls-3" points="1627.57 133.01 1613.68 132.81 1606.81 127.63 1627.57 133.01"/><polyline class="cls-4" points="1613.68 132.81 1606.81 127.63 1613.68 132.81"/><polyline class="cls-4" points="1627.57 133.01 1613.68 132.81 1627.57 133.01"/><polyline class="cls-3" points="1627.57 133.01 1606.81 127.63 1595.36 117.3 1618.38 127.78 1620.7 127.81 1627.57 133.01"/><polyline class="cls-4" points="1627.57 133.01 1606.81 127.63 1627.57 133.01"/><polyline class="cls-4" points="1551.74 82.79 1547.1 82.74 1551.74 82.79"/><polyline class="cls-3" points="1547.1 82.74 1542.47 82.7 1524.06 70.63 1547.1 82.74"/><polyline class="cls-4" points="1547.1 82.74 1542.47 82.7 1547.1 82.74"/><polyline class="cls-4" points="1542.47 82.7 1524.06 70.63 1542.47 82.7"/><polyline class="cls-3" points="1572.37 103.43 1558.53 98.17 1563.16 96.52 1572.37 103.43"/><polyline class="cls-3" points="1620.7 127.81 1618.38 127.78 1572.37 103.43 1620.7 127.81"/><polyline class="cls-4" points="1620.7 127.81 1618.38 127.78 1620.7 127.81 1618.38 127.78 1620.7 127.81"/><polyline class="cls-5" points="1620.7 127.81 1618.38 127.78 1620.7 127.81"/><polyline class="cls-3" points="1429.14 462.62 1394.97 445.44 1433.72 460.95 1429.14 462.62"/><polyline class="cls-3" points="1413.13 469.32 1381.27 441.97 1422.25 465.98 1413.13 469.32"/><path class="cls-3" d="M1387.76,521.91c-31.9-1.87-61.56-3.65-86.63-19l43.35,6.92h-2.28l45.56,12.1"/><polyline class="cls-3" points="1387.76 521.91 1342.19 509.81 1344.48 509.82 1387.76 521.91"/><polyline class="cls-4" points="1387.76 521.91 1342.19 509.81 1387.76 521.91"/><polyline class="cls-3" points="1403.97 470.98 1392.6 462.43 1413.13 469.32 1403.97 470.98"/><polyline class="cls-3" points="1497.6 464.82 1483.93 461.29 1497.6 464.82"/><path class="cls-6" d="M1964.06,417.88l11.58-4.71,16.47-13.06c-12.39-5.51-24.79-11-37.8-15.71a207.42,207.42,0,0,0-41.46-10.68l9,7.08c-32-2.61-54.43-18.64-81.82-24.38a330.24,330.24,0,0,0,30.6,14.6c10.65,4.56,21.62,8.92,32.51,13.49,21.76,9.09,43.18,19.17,61,33.37"/><polyline class="cls-3" points="1791.53 370.55 1782.4 368.67 1791.53 370.55"/><polyline class="cls-3" points="1912.85 373.72 1899.16 371.64 1912.85 373.72"/><polyline class="cls-3" points="1805.14 375.97 1791.53 370.55 1805.14 375.97"/><polyline class="cls-3" points="1493.42 418.87 1479.73 415.36 1466.08 405.07 1493.44 415.48 1493.42 418.87"/><polyline class="cls-3" points="1493.39 422.28 1479.73 415.36 1493.42 418.87 1493.39 422.28"/><polyline class="cls-3" points="1497.77 444.41 1486.4 437.51 1459.13 418.62 1493.32 430.78 1497.77 444.41"/><polyline class="cls-3" points="1497.75 446.12 1486.4 437.51 1497.77 444.41 1497.75 446.12"/><polyline class="cls-3" points="1500 451.22 1468.15 432.28 1486.4 437.51 1497.75 446.12 1500 451.22"/><path class="cls-6" d="M1493.44,415.48l-27.36-10.41,13.65,10.29c-25.12-5.26-54.83-7.2-80-15.81a177,177,0,0,1,40.46-3.93c23.13.15,46.25,3.4,69.36,4.69l-16.13,15.17"/><polyline class="cls-7" points="1493.44 415.48 1466.08 405.07 1493.44 415.48"/><path class="cls-3" d="M1521,397c-34.22-10.54-73.08-15.87-98.17-38.14,2.53-.14,5-.19,7.42-.18,47.36.29,80.2,29.74,128.19,30.24,1.26,0,2.54,0,3.83,0-22.71-15.59-59.25-27.75-82-43.27,36.57,13.91,70.76,31.2,104.87,48.63L1521,397"/><polyline class="cls-3" points="1466.5 347.27 1418.55 314.64 1439.15 321.59 1466.5 347.27"/><polyline class="cls-3" points="1354.39 292.25 1347.53 290.53 1345.25 288.82 1354.39 292.25"/><path class="cls-3" d="M1395.64,309.44l-11.45-5.15-29.8-12-6.86-1.72,48.11,18.91m-11.45-5.15-29.8-12,29.8,12"/><path class="cls-3" d="M1439.15,321.59l-20.6-6.95-34.36-10.35-29.8-12-9.14-3.43,2.28,1.71-43.53-29,50.48,5.24c25.22,20.54,57.27,35.93,84.67,54.84"/><polyline class="cls-4" points="1439.15 321.59 1418.55 314.64 1439.15 321.59"/><polyline class="cls-4" points="1354.39 292.25 1345.25 288.82 1354.39 292.25"/><polyline class="cls-4" points="1384.19 304.29 1354.39 292.25 1384.19 304.29"/><polyline class="cls-4" points="1384.19 304.29 1354.39 292.25 1384.19 304.29"/><path class="cls-3" d="M1340.77,254.81c-25.25-5.16-48.21-12.05-66.55-25.68l55.16-4.95-6.92,10.18,18.31,20.45"/><polyline class="cls-3" points="823.01 552.49 802.38 538.93 809.24 535.51 823.01 552.49"/><path class="cls-8" d="M195.4,570.47C149.5,516.16,112.76,460.11,82.89,399l68.73,5c74.17,11.79,148.38,52.2,147.45,110a75.1,75.1,0,0,1-5.23,25.79c-34.35,5.15-68.69,18.81-98.44,30.74"/><path class="cls-3" d="M468,548l-9.17-6.79c16-6.82,18.28-23.82,45.77-25.57C500,532.61,484,539.43,468,548"/><path class="cls-9" d="M380.94,568.5c-18.43-23.18-42.76-29.9-68.25-29.86a179,179,0,0,0-18.85,1.09,75.1,75.1,0,0,0,5.23-25.79c.93-57.79-73.28-98.2-147.45-110,56.77,2.88,113.54,5.09,170.32,6q28.41.44,56.79.39c54.87-.09,109.73-1.64,164.6-5.29l-6.91-15.29c-13.15-1.41-26.37-2.15-39.58-2.52-12.84-.38-25.67-.41-38.39-.39l-11.88,0c-23.68,0-46.9-.07-69.16-2.31S334,378.06,314.2,369.7a400.15,400.15,0,0,1,94.32-11.08A451.13,451.13,0,0,1,471.71,363c62.8,8.74,123.51,30.08,174.73,60.59,18.33,10.16,45.84,15.23,73.32,18.58l-38.94-3.33-4.56,15.3L729,489.75l-13.74-3.38-50.42-10.12L619,467.81a132.67,132.67,0,0,0-28.41-2.87h0c-29.69.05-60,8.49-93,15l39,8.44c6.46,5.09,9.58,10.23,10.2,15.31,2.6,21.93-42.63,42.12-74.24,47.69L468,548c16-8.53,32-15.35,36.6-32.36-27.49,1.75-29.74,18.75-45.77,25.57l-9.19-20.39-32.1-16.95c16-27.22-39-20.33-34.43-44.14l-55-16.92-29.73,25.54c41.27,27.15,84.85,56,82.62,100.19"/><path class="cls-10" d="M299.07,513.94c.93-57.79-73.28-98.2-147.45-110,74.17,11.79,148.38,52.2,147.45,110"/><path class="cls-11" d="M458.78,541.17c16-6.82,18.28-23.82,45.77-25.57-27.49,1.75-29.74,18.75-45.77,25.57"/><path class="cls-3" d="M761.11,510.1,729,489.75l-13.74-3.38-50.42-10.12-2.29,3.4,43.55,13.53L658,491.56c18.34,11.87,41.25,13.54,64.16,16.9l39,1.64m-45.85-23.73-50.42-10.12,50.42,10.12"/><polyline class="cls-4" points="715.26 486.37 664.84 476.25 715.26 486.37"/><polyline class="cls-3" points="461.07 551.37 458.78 541.17 467.95 547.96 461.07 551.37"/><polyline class="cls-3" points="245.29 249.1 242.98 237.21 245.29 249.1"/><path class="cls-12" d="M486.55,721.33c-59.63-47.51-18.51-113.87-25.48-170L468,548l4.59,3.39c31.61-5.57,76.84-25.76,74.24-47.69-.62-5.08-3.74-10.22-10.2-15.31l-39-8.44c32.93-6.48,63.27-14.92,93-15A132.69,132.69,0,0,1,619,467.81l45.83,8.44-2.29,3.4-41.26-6.73c22.94,17,55,18.61,84.81,20.26L658,491.56c18.34,11.87,41.25,13.54,64.16,16.9L715.3,517l27.54,34L690.1,527.21l-18.29,17c18.36,28.88,41.32,64.55,78,88.29C701.7,605.39,665,563,598.51,552.84L594,568.16,580.21,558c16.08,28.86,50.46,42.42,64.23,71.3l-41.26-27.13c2.33,18.68,23,32.26,29.86,47.55-33.9-23.4-38.92-79.87-78.52-79.81l-1.8,0h-2.78c-70.5.11-70,63.65-40.54,110.59L495.64,672c-25.19,10.25-2.24,34-9.09,49.33"/><path class="cls-13" d="M546.78,503.66c-.62-5.08-3.74-10.22-10.2-15.31l-39-8.44,39,8.44c6.46,5.09,9.58,10.23,10.2,15.31"/><path class="cls-13" d="M497.63,479.91c32.93-6.48,63.27-14.92,93-15-29.69.05-60,8.49-93,15"/><polyline class="cls-14" points="706.1 493.18 658 491.56 706.1 493.18"/><polyline class="cls-14" points="662.55 479.65 664.84 476.25 662.55 479.65"/><path class="cls-12" d="M795.37,448.85l9.13-3.42L816,435.21l-13.75-3.37L816,435.21l2.28-13.6L786.13,403,804.45,408,777,389.38l34.38,11.84,0-8.5-11.46-6.78c-27.49-6.76-57.28-6.71-82.5-16.87a192,192,0,0,1,35.36-3c25,0,50.43,3.42,76.9,4.52l9.16-3.41C804.37,357,765.43,352,740.2,329.93c2.52-.17,5-.25,7.39-.26,47.37-.07,80.49,29.09,128.56,29,1.27,0,2.55-.05,3.83-.07-22.93-15.26-59.6-27.12-82.53-42.37,36.67,13.55,71.06,30.49,105.44,47.44h4.59c45.82,6.73,87.07,15.16,128.31,21.9l-52.72-22,52.72,22c66.41,13.5,128.27,27.07,192.32,45.81l-50.34-32.33c32-17,68.69-11.85,98.47-18.6-48.06-12-89.3-32.41-135.13-39.18,45.83,6.77,87.07,27.2,135.13,39.18l9.14-1.69c-19.43-13.63-41.75-23-64.08-31.54s-44.67-16.16-64.15-26.36c27.51,5.11,50.42,20.39,82.47,22.14l-9.13-6.81-13.78-1.72,13.78,1.72c29.78,3.44,55,13.65,80.15,23.94,13.77-11,28.7-22,44.2-30.47s31.59-14.32,47.66-15.1l16,.08-34.36-10.35,11.45,5.15-48.11-18.91-43.53-29,50.48,5.24-13.71-11.94c-25.25-5.16-48.21-12.05-66.55-25.68l55.16-4.95,32.26-22-4.48-28.92c-19.47-22.52-51.36-36-89.7-36.07-2.27,0-4.57,0-6.89.12l2.24,25.51-11.45-17-20.72,18.67L1210,161.06c-11.5,15.31-26.44,19.56-42.51,19.55s-33.29-4.23-49.36-5.92l13.78,8.49c-7.34,10.89-16.15,14.44-25.41,14.44-13.91,0-28.73-7.94-41.12-11L1038,171.09c-.86.06-1.66.24-2.48.28l1-1.13-1-.57-39-5-20.64-10.17L964.38,146l11.5,8.48,13.76,5.09-11.48-10.19,22.94,8.47-45.87-22-16.05-5.07,4.59-1.71-20.65-13.56L879.57,96.81,849.78,102,875,95.12l13.73-3.42-45.82-5,2.28-8.51c-18.35-5.06-41.26-8.43-64.17-10.1h-2.27L739.8,74.93l34.35-10.25-2.31-15.3c-22.07,1.38-45.58,10.45-69.41,10.49A78.45,78.45,0,0,1,684.8,58l4.57,3.39L655,63.16c-19.45,6.7-38.33,14.07-56.71,22l15.53,12.12L598.32,85.11c-66.15,28.27-124.65,64.38-167.57,111,32.06-10.23,64.11-20.48,91.57-35.83A355.34,355.34,0,0,1,647.8,137.72c4.73,0,9.45.07,14.22.23L614,165.23h2.3l-11.44,10.22L614,165.23c-73.29.11-128.21,37.6-194.64,39.4l11.44-8.53L314,226.9l-43.46,44.27,36.66,3.34L286.57,283c-3,3-14.79,7.6-16,11.83-1.47,5.45,14.57,10.28,89.31,10.16l38.93-3.47c-43.5,13.66-82.43,29-114.45,54.59l29.8,13.55a400,400,0,0,1,94.32-11.08A454.28,454.28,0,0,1,471.71,363c62.8,8.74,123.51,30.08,174.73,60.59,18.33,10.16,45.84,15.23,73.32,18.58h4.59l-13.76-8.48,20.62,6.78L699.1,413.3,740.37,437l6.87-3.42-34.41-16.95,39,15.26L761,425.1l34.4,23.75m327.41-107.57c34.38,11.87,64.16,32.28,107.67,39.11-43.51-6.83-73.29-27.24-107.67-39.11L1109,336.19l-9.16-1.69,9.16,1.69,13.75,5.09-2.29,5.11-36.66-5.08,36.66,5.08,2.29-5.11m-190.12,7c32,1.66,52.72,27.13,82.5,28.78-29.78-1.65-50.46-27.12-82.5-28.78m-27.5,0h-2.29L880,345l22.91,3.35h2.29c27.51,6.77,48.14,20.34,75.63,25.39-27.49-5.05-48.12-18.62-75.63-25.39m192.43,1.44-13.74,5.12,13.74-5.12M458.38,284.47l-59.53,17.09,59.53-17.09m0,0-59.53,17.09,59.53-17.09m0,0,9.16-1.71,9.15-3.41,9.17-1.72,8.68-3.24.89-.27,8.74-1.62,9.16-3.41,9.16-1.72,9.16-3.42,9.16-3.41,6.86-1.71,9.16-3.42L566,252l9.13-3.41,6.88-3.41,9.16-3.42,6.85-5.1c-35.27,4.6-65.4,16.83-95.21,29.55l-3.23,1.2-2.45,1.21-11,4.64-2.62,1-9.13,3.42-5.1,2.52c-3.64,1.46-7.25,2.93-10.93,4.3m-151.2-10q6,.39,12.13.38c2.79,0,5.64-.26,8.47-.42H337l9.14-1.72L357.57,271l5.48-2c5-1.32,9.94-2.91,14.92-4.73l.2-.08,9.16-3.4-9.16,3.4,9.16-3.4-9.16,3.4-.07,0c3.08-1.13,6.13-2.08,9.23-3.43a71.29,71.29,0,0,1-11.88,3.92L369,265.91l-11.43,1.72-3.61.67c-3.53.39-7.11.73-10.7,1.05H337l-6.54,1.23a151.49,151.49,0,0,0-23.23,3.92m955.63-111.68v5.1L1272,173l-9.2-10.21"/><path class="cls-2" d="M458.38,284.47l36.16-10.08-8.68,3.24-9.17,1.72-9.15,3.41-9.16,1.71"/><path class="cls-2" d="M469.31,280.17l5.1-2.52,9.13-3.42,2.62-1q-8.36,3.54-16.85,6.91"/><path class="cls-2" d="M495.43,274.12c36.12-10.1,71.9-21,102.59-37.46l-6.85,5.1L582,245.18l-6.88,3.41L566,252l-9.17,3.41-9.16,3.42-6.86,1.71L531.65,264l-9.16,3.42-9.16,1.72-9.16,3.41-8.74,1.62"/><path class="cls-2" d="M497.13,268.62l2.45-1.21,3.23-1.2-5.68,2.41"/><path class="cls-15" d="M1035.49,171.37l1-1.13,1.47.85c-.86.06-1.66.24-2.48.28"/><polyline class="cls-14" points="613.85 97.23 598.32 85.11 613.85 97.23"/><polyline class="cls-14" points="1395.64 309.44 1384.19 304.29 1395.64 309.44"/><polyline class="cls-14" points="1354.48 266.75 1304 261.51 1354.48 266.75"/><polyline class="cls-14" points="1274.22 229.13 1329.38 224.18 1274.22 229.13"/><polyline class="cls-16" points="458.38 284.47 467.54 282.75 476.69 279.35 485.86 277.63 494.54 274.39 485.86 277.63 476.69 279.35 467.54 282.75 458.38 284.47"/><polyline class="cls-16" points="469.31 280.17 474.41 277.65 483.54 274.23 486.16 273.26 483.54 274.23 474.41 277.65 469.31 280.17"/><polyline class="cls-16" points="495.43 274.12 504.17 272.5 513.33 269.09 522.49 267.37 531.65 263.94 540.81 260.54 547.67 258.83 556.83 255.41 566 252 575.13 248.59 582.01 245.18 591.17 241.76 598.02 236.66 591.17 241.76 582.01 245.18 575.13 248.59 566 252 556.83 255.41 547.67 258.83 540.81 260.54 531.65 263.94 522.49 267.37 513.33 269.09 504.17 272.5 495.43 274.12"/><polyline class="cls-16" points="497.13 268.62 499.58 267.41 502.81 266.21 499.58 267.41 497.13 268.62"/><polyline class="cls-16" points="398.85 301.56 458.38 284.47 398.85 301.56"/><polyline class="cls-16" points="398.85 301.56 458.38 284.47 398.85 301.56"/><path class="cls-13" d="M719.76,442.16c-27.48-3.35-55-8.42-73.32-18.58C595.22,393.07,534.51,371.73,471.71,363c62.8,8.74,123.51,30.08,174.73,60.59,18.33,10.16,45.84,15.23,73.32,18.58"/><path class="cls-13" d="M314.2,369.7a400,400,0,0,1,94.32-11.08A400.15,400.15,0,0,0,314.2,369.7"/><path class="cls-2" d="M337,274.46h-9.18A170.07,170.07,0,0,0,363.05,269l-5.48,2-11.47,1.71L337,274.46"/><path class="cls-2" d="M330.41,270.59l6.54-1.23h6.3c-4.31.38-8.58.79-12.84,1.24"/><path class="cls-2" d="M354,268.3l3.61-.67L369,265.91l6.46-1.21a153.05,153.05,0,0,1-21.5,3.6"/><path class="cls-2" d="M378,264.26l.13-.05.07,0-.2.08"/><polyline class="cls-3" points="252.16 250.79 256.75 249.09 252.16 250.79"/><path class="cls-8" d="M270.52,271.17c-57.28-6.73-112.29-27-169.56-32l34.32-23.86-4.57,3.42c7.64,1.12,17.32,1.3,27.91,1.29l16.45-.09c16.9,0,34.65.37,49.56,3.75L243,237.21v1.69l2.31,10.2-13.75,10.23,20.62-8.54,4.59-1.71L314,226.9l-43.46,44.27"/><path class="cls-17" d="M158.62,220c-10.59,0-20.27-.17-27.91-1.29,7.64,1.12,17.3,1.29,27.89,1.27l16.47-.07-16.45.09"/><polyline class="cls-17" points="130.71 218.69 135.28 215.28 130.71 218.69"/><polyline class="cls-18" points="245.29 249.1 242.99 238.91 242.98 237.21 245.29 249.1"/><polyline class="cls-17" points="270.52 271.17 313.98 226.9 270.52 271.17"/><path class="cls-8" d="M260.92,380.92c-34.27.05-77.67-11.42-114-21.16,29.73-34.05,82.37-59.63,123.56-88.59l36.66,3.34L286.57,283c-3,3-14.79,7.6-16,11.83-1.47,5.45,14.57,10.28,89.31,10.16l38.93-3.47c-43.5,13.66-82.43,29-114.45,54.59l29.8,13.55-18.32,5.12c-7.22,3.23-15.76,5-25.23,5.73-3.15.24-6.37.37-9.73.37"/><path class="cls-17" d="M284.4,356.15c32-25.55,71-40.93,114.45-54.59-43.5,13.66-82.43,29-114.45,54.59"/><path class="cls-17" d="M270.61,294.87c1.17-4.23,13-8.84,16-11.83l20.61-8.53L286.57,283c-3,3-14.79,7.6-16,11.83"/><path class="cls-19" d="M378.73,410.33q-28.41,0-56.79-.39c-56.78-.9-113.55-3.11-170.32-6a237.16,237.16,0,0,0-51.57-5.65c-5.73,0-11.45.23-17.16.66-18.4-40.78-34.51-81.55-46-125.73L101,239.13c57.27,5,112.28,25.31,169.56,32-41.19,29-93.83,54.54-123.56,88.59,36.29,9.74,79.69,21.21,114,21.16h0c3.33,0,6.55-.13,9.7-.37,9.47-.69,18-2.5,25.23-5.73l18.32-5.12c19.75,8.36,41,12.63,63.21,14.86s45.48,2.36,69.16,2.33l11.88,0c12.73,0,25.56,0,38.39.38,13.21.37,26.43,1.11,39.58,2.52L543.33,405c-54.87,3.66-109.73,5.2-164.6,5.29"/><path class="cls-14" d="M378.73,410.33c54.87-.09,109.73-1.63,164.6-5.29-54.87,3.65-109.73,5.2-164.6,5.29"/><path class="cls-14" d="M321.94,409.94c-56.78-.9-113.55-3.11-170.32-6,56.77,2.88,113.54,5.09,170.32,6"/><path class="cls-14" d="M496.84,387.23c-12.83-.38-25.66-.4-38.39-.38l-11.88,0c-23.68,0-46.9-.09-69.16-2.33,22.26,2.24,45.48,2.35,69.16,2.31l11.88,0c12.72,0,25.55,0,38.39.39"/><path class="cls-20" d="M261,380.92h0c3.36,0,6.58-.13,9.73-.37-3.15.24-6.37.37-9.7.37"/><path class="cls-20" d="M147,359.76c29.73-34.05,82.37-59.63,123.56-88.59-41.19,29-93.83,54.54-123.56,88.59"/><path class="cls-3" d="M151.62,404l-68.73-5c5.71-.43,11.43-.66,17.16-.66A237.16,237.16,0,0,1,151.62,404"/><polyline class="cls-18" points="151.62 403.95 82.89 398.96 151.62 403.95"/></g></g></g></svg>