<svg xmlns="http://www.w3.org/2000/svg" viewBox="0 0 3094.85 1041.36"><defs><style>.cls-1,.cls-12{opacity:0.8;}.cls-12,.cls-2{fill:#7d9fd3;}.cls-3{fill:#4b83c4;}.cls-4{fill:#2677bd;}.cls-5{fill:#1d76bc;}.cls-6{fill:#90acd9;}.cls-7{fill:#377cc0;}.cls-8{fill:#3e7ec1;}.cls-9{fill:#6a93cc;}.cls-10{fill:#2778bd;}.cls-11{fill:#2d79be;}.cls-13{fill:#4380c2;}.cls-14{fill:#327bbf;}.cls-15{fill:#4d84c4;}.cls-16{fill:#347bbf;}.cls-17{fill:#2c79be;}.cls-18{fill:#2377bd;}.cls-19{fill:#5688c7;}.cls-20{fill:#2477bd;}</style></defs><title>Asset 2</title><g id="Layer_2" data-name="Layer 2"><g id="Layer_1-2" data-name="Layer 1"><g class="cls-1"><path class="cls-2" d="M3085,815.91a1330.63,1330.63,0,0,1-6.27,182.1l16.26,43.35-46.06-41.74c-21.83-14-45.51-27-69.78-39.87l-36.69-19.27c-12.28-6.42-24.52-13.05-36.67-19.46-48.54-25.93-94.43-54.33-127.77-91.48,22.12,9.72,49.51,15.85,75.72,21.09l25.56,5c16.43,3.29,31.34,6.55,42.84,10.62L2914,870l15.16-6.25,15.14-6.08,30.32-12.13,52.71,13.9-52.71-13.9L3085,815.91" transform="translate(-0.15)"/><path class="cls-2" d="M1498.13,714.82l2.15,1.52-14.22,12.48c-25.88,5.13-51.72,10.27-77.18,16.43-12.72,3.08-25.35,6.41-37.84,10.13-6.24,1.87-12.44,3.78-18.61,5.91s-12.31,4.41-18.39,6.79a494.8,494.8,0,0,1-179.75,16.34q-18.4-1.41-37-4.15l39.19-17.84c13.07-5.86,26.15-11.57,39.26-17.36,2.46.29,4.91.51,7.34.73,53,4.82,102.35-4,150.77-13.76,48.35-9.19,95.72-19.1,144.33-17.22" transform="translate(-0.15)"/><path class="cls-3" d="M1114.85,897.43c-29,6.89-58.79,12.42-88.91,17.26-15.06,2.43-30.2,4.68-45.39,6.84l-22.8,3.19c-7.6,1-15.23,2.27-22.84,3.39l1.62-23.36c4.19-.24,8.43-.61,12.71-1.06l12.92-1.46,26.37-3.33c17.76-2.16,35.83-3.79,53.8-2.4a134.81,134.81,0,0,1,29.45,5.42l-6.65-5.72,49.72,1.23" transform="translate(-0.15)"/><path class="cls-3" d="M988.85,869.43l-27.13,5.72c-4.52.93-9,2-13.56,3l-13.56,3.05-6.72-5.63,30.49-3.27,30.48-2.86" transform="translate(-0.15)"/><polyline class="cls-3" points="1562.2 258.38 1576.14 267.7 1558.22 260.59 1562.2 258.38"/><polyline class="cls-3" points="1006.53 0 1019.24 7.34 1031.91 14.83 1019.24 7.34 1006.53 0"/><polyline class="cls-3" points="1031.91 14.83 1035.67 15.12 1031.91 14.83"/><polyline class="cls-3" points="629.18 725.62 646.45 739.5 629.18 725.62"/><polyline class="cls-3" points="890.13 49.9 897.33 55.56 890.13 49.9"/><polyline class="cls-3" points="2163.02 935.72 2197.8 972.46 2163.02 935.72"/><polyline class="cls-3" points="1576.14 267.7 1603.39 291.46 1576.14 267.7"/><polyline class="cls-3" points="672.87 785.08 697.38 794.12 676.27 787.85 672.87 785.08"/><polyline class="cls-3" points="597.68 708.42 629.18 725.62 608.07 716.74 597.68 708.42"/><polyline class="cls-3" points="821.22 814.06 781.35 824.54 774.38 821.49 781.35 824.54 774.38 821.49 774.53 818.89 821.22 814.06"/><path class="cls-3" d="M627.87,756.78,673,785.08l24.52,9-21.11-6.27c22.56,12.85,46,25.09,70.35,36.07q9.13,4.11,18.43,8c6.2,2.61,12.46,5.23,18.77,7.7q18.94,7.44,38.59,13.62l7.87-12.53-35.26-6.16-17.64-3.08-8.82-1.54c-2.94-.51-5.89-1-8.83-1.44,7.21-1.42,14.41-2.65,21.62-3.93l-7-3-7-1.75-7-1.65,7.12.35,7.1.45c-5.8-2.57-11.6-5-17.41-7.47L739.83,804l-34.92-14.76,27.53,19.61-34.64-20,7.11.36-31-22.37-46-10.13m69.93,32.14-7.14-.35,7.14.35" transform="translate(-0.15)"/><polyline class="cls-4" points="676.27 787.85 697.38 794.12 676.27 787.85"/><polyline class="cls-4" points="774.38 821.49 781.35 824.54 774.38 821.49"/><path class="cls-3" d="M544.29,701,562,706.87l12.37,4.35,6.18,2.18,6.18,2.26,73.4,40.15,13.79,11.1-46-10.13-41.7-28.13c-7-4.73-13.94-9.26-20.92-13.86l-21-13.78" transform="translate(-0.15)"/><polyline class="cls-3" points="760.32 818.09 767.43 818.45 774.53 818.89 774.38 821.49 767.35 819.74 760.32 818.09"/><polyline class="cls-4" points="760.32 818.09 767.43 818.45 774.53 818.89 767.43 818.45 760.32 818.09"/><polyline class="cls-3" points="537.07 698.17 551.07 700.47 561.85 706.87 544.14 701.01 537.07 698.17"/><polyline class="cls-3" points="547.82 698.56 551.07 700.47 547.82 698.56"/><path class="cls-3" d="M557.46,701.49l20.19,3.34c6.73,1.14,13.45,2.4,20.18,3.59-7.17-.34-14.33-.78-21.5-1l-18.87-5.9" transform="translate(-0.15)"/><polyline class="cls-4" points="774.38 821.49 781.35 824.54 774.38 821.49"/><polyline class="cls-3" points="547.82 698.56 557.31 701.49 547.82 698.56"/><path class="cls-3" d="M551.22,700.47l6.24,1,18.87,5.9c3.47,2.7,6.94,5.5,10.4,8.27l-6.18-2.26-6.18-2.18L562,706.87l12.37,4.35,6.18,2.18,6.18,2.26-6.18-2.26-6.18-2.18L562,706.87l-10.78-6.4" transform="translate(-0.15)"/><polyline class="cls-4" points="547.82 698.56 557.31 701.49 551.07 700.47 547.82 698.56"/><polyline class="cls-4" points="557.31 701.49 576.18 707.39 557.31 701.49"/><polyline class="cls-4" points="561.85 706.87 574.22 711.22 580.4 713.4 586.58 715.66 580.4 713.4 574.22 711.22 561.85 706.87"/><path class="cls-3" d="M576.33,707.39c7.17.25,14.33.69,21.5,1l10.38,8.32c-10.62-3.11-21.24-6.32-31.88-9.35" transform="translate(-0.15)"/><polyline class="cls-4" points="597.68 708.42 608.07 716.74 597.68 708.42"/><path class="cls-4" d="M576.33,707.39c7.17.25,14.33.69,21.5,1-7.17-.34-14.33-.78-21.5-1" transform="translate(-0.15)"/><path class="cls-3" d="M576.33,707.39c10.64,3,21.26,6.24,31.88,9.35l17.18,16.49-35.08-17.39-3.58-.18c-3.46-2.77-6.93-5.57-10.4-8.27" transform="translate(-0.15)"/><path class="cls-4" d="M576.33,707.39c10.64,3,21.26,6.24,31.88,9.35-10.62-3.11-21.24-6.32-31.88-9.35" transform="translate(-0.15)"/><polyline class="cls-4" points="690.52 788.57 697.65 788.92 690.52 788.57"/><polyline class="cls-3" points="697.65 788.92 704.77 789.28 732.29 808.88 697.65 788.92"/><polyline class="cls-4" points="697.65 788.92 704.77 789.28 697.65 788.92"/><polyline class="cls-4" points="704.77 789.28 732.29 808.88 704.77 789.28"/><polyline class="cls-3" points="659.98 755.8 681.02 764.66 673.78 766.91 659.98 755.8"/><polyline class="cls-3" points="586.58 715.66 590.17 715.84 659.98 755.8 586.58 715.66"/><polyline class="cls-4" points="586.58 715.66 590.17 715.84 586.58 715.66 590.17 715.84 586.58 715.66"/><polyline class="cls-5" points="586.58 715.66 590.17 715.84 586.58 715.66"/><polyline class="cls-3" points="913.16 218.1 966.98 247.58 905.58 220.23 913.16 218.1"/><polyline class="cls-3" points="939.78 209.38 988.82 254.19 924.65 213.62 939.78 209.38"/><path class="cls-3" d="M986.27,131.57l19.32,2.25c6.37.75,12.67,1.72,18.89,2.67,12.44,1.94,24.57,4.18,36.3,7,23.45,5.72,45.3,13.93,64.83,27.17l-69.89-15.83,3.73.28-36.56-11.95-9.15-3-4.57-1.49-4.58-1.43-18.32-5.73" transform="translate(-0.15)"/><path class="cls-3" d="M986.27,131.57l18.32,5.73,4.58,1.43,4.57,1.49,9.15,3,36.56,11.95-3.73-.28c-23.12-7.84-46.25-15.89-69.45-23.31" transform="translate(-0.15)"/><polyline class="cls-4" points="986.12 131.57 1004.44 137.3 1009.02 138.73 1013.6 140.22 1022.74 143.21 1059.3 155.16 1022.74 143.21 1013.6 140.22 1009.02 138.73 1004.44 137.3 986.12 131.57"/><polyline class="cls-3" points="954.8 207.73 972.46 221.88 939.78 209.38 954.8 207.73"/><polyline class="cls-3" points="802.13 208.43 824.07 215.04 802.13 208.43"/><path class="cls-6" d="M44.54,270.81,26,278.43.15,299C40.66,315,81,331,128.72,336.62l-14.59-10.56c25.74,1.54,47.73,8.25,68.75,15.59l15.63,5.56c5.18,1.92,10.34,3.81,15.54,5.59a247,247,0,0,0,31.85,8.95,510.07,510.07,0,0,0-49.26-22.24c-17.18-6.66-34.91-13-52.54-19.67-35.27-13.33-70.14-28-99.56-49" transform="translate(-0.15)"/><polyline class="cls-3" points="323.38 340.14 338.03 343.05 323.38 340.14"/><polyline class="cls-3" points="128.57 336.62 150.6 339.4 128.57 336.62"/><polyline class="cls-3" points="301.52 331.81 323.38 340.14 301.52 331.81"/><polyline class="cls-3" points="805.51 278.99 827.35 285.58 848.53 302.56 805.22 284.17 805.51 278.99"/><polyline class="cls-3" points="805.81 273.79 827.35 285.58 805.51 278.99 805.81 273.79"/><polyline class="cls-3" points="800.36 239.59 818.25 251.14 860.85 282.51 806.55 260.81 800.36 239.59"/><polyline class="cls-3" points="800.51 236.99 818.25 251.14 800.36 239.59 800.51 236.99"/><path class="cls-3" d="M797.39,229c16.75,10.5,33.46,21.19,50.14,31.77l-29.13-9.66L800.65,237l-3.26-8" transform="translate(-0.15)"/><path class="cls-6" d="M805.36,284.17l43.32,18.39-21.19-17c40.1,10.37,87.86,16,127.53,31.59-22,3.36-43.81,3.58-65.46,2.2-18.61-1.18-37.15-3.55-55.68-6.12s-37-5.45-55.64-7.08l13.56-11.05,6.78-5.52,6.78-5.43" transform="translate(-0.15)"/><polyline class="cls-7" points="805.22 284.17 848.53 302.56 805.22 284.17"/><path class="cls-3" d="M759.54,310.42c6.8,2.29,13.72,4.47,20.7,6.59l10.5,3.16c3.51,1,7,2.08,10.54,3.19,14.05,4.35,28.1,8.75,41.63,13.68,27.08,9.87,52.15,21.88,71.23,40-4.06,0-8-.17-11.9-.42-37.88-2.41-69.37-15.59-101.12-28.79l-6-2.48-6-2.37c-4-1.58-8-3.13-12-4.64-8.07-3-16.25-5.88-24.65-8.39a224.29,224.29,0,0,0-53.76-9.68c-2-.1-4.09-.19-6.17-.23,17.82,12.6,41.18,24.19,64.48,35.77,11.65,5.79,23.29,11.58,34.22,17.5a284.12,284.12,0,0,1,30,18.65c-28.67-12.42-56.46-25.3-83.81-39.08s-54.27-28.11-81.28-42.47l103.4,0" transform="translate(-0.15)"/><polyline class="cls-3" points="843.21 390.8 916.87 445.01 884.69 432.52 843.21 390.8"/><polyline class="cls-3" points="1016.61 485.65 1027.3 489.09 1030.73 491.96 1016.61 485.65"/><path class="cls-3" d="M953,455.1l17.7,8.94c15.39,7,30.74,14.37,46.07,21.61l10.7,3.44-37.18-17.22q-4.65-2.17-9.31-4.24l-9.32-4.18L953,455.1m17.7,8.94c15.39,7,30.74,14.37,46.07,21.61-15.33-7.24-30.68-14.65-46.07-21.61" transform="translate(-0.15)"/><path class="cls-3" d="M884.84,432.52,917,445l53.66,19c15.39,7,30.74,14.37,46.07,21.61l14.13,6.31-3.43-2.87,65.65,49.4-79.17-13.94c-9.43-8.56-19.58-16.68-30.16-24.54S962.16,484.83,951,477.44c-22.31-14.77-45.16-29.25-66.16-44.92" transform="translate(-0.15)"/><polyline class="cls-4" points="884.69 432.52 916.87 445.01 884.69 432.52"/><polyline class="cls-4" points="1016.61 485.65 1030.73 491.96 1016.61 485.65"/><path class="cls-4" d="M970.68,464c15.39,7,30.74,14.37,46.07,21.61-15.33-7.24-30.68-14.65-46.07-21.61" transform="translate(-0.15)"/><path class="cls-4" d="M970.68,464c15.39,7,30.74,14.37,46.07,21.61-15.33-7.24-30.68-14.65-46.07-21.61" transform="translate(-0.15)"/><path class="cls-3" d="M1034.31,544.38c39.29,10.86,74.7,24,101.91,47l-87.31,1.06,12-14.72-26.61-33.35" transform="translate(-0.15)"/><polyline class="cls-3" points="1910.18 177.05 1940.86 202.05 1929.06 205.76 1910.18 177.05"/><path class="cls-8" d="M2927.86,318.61a1235.85,1235.85,0,0,1,74.07,144.72q3.92,9.1,7.65,18.25t7.27,18.45q7.11,18.48,13.55,37.11,12.87,37.26,23.17,75.31l-53.3-15.37-13.34-3.84-13.36-3.68-26.75-7.34c-56.74-20.61-111.43-52-149.88-89-38.53-36.49-60.79-78.87-51.82-122.15a108.57,108.57,0,0,1,15.74-37.18c14.15.65,28.45.51,42.76-.21q10.73-.56,21.44-1.5l10.67-.95q5.31-.48,10.61-1c28.23-3,55.84-7.4,81.52-11.54" transform="translate(-0.15)"/><path class="cls-3" d="M2483.22,270.91l13,12.79c-27.56,5.81-35.55,30.77-80.11,25.79,11.62-24.44,39.13-30.2,67.11-38.58" transform="translate(-0.15)"/><path class="cls-9" d="M2628.9,264.38a140.92,140.92,0,0,0,9.4,14.06A121.67,121.67,0,0,0,2673,309.38c17.32,10.36,36.83,16.62,57.28,20.43,10,1.86,20.24,3.15,30.56,4A108.57,108.57,0,0,0,2745.12,371c-9,43.28,13.29,85.66,51.82,122.15,38.45,37,93.14,68.43,149.88,89q-66.59-16.77-133.38-32.69l-16.71-3.94-8.36-2L2780,541.8l-33.55-7.26q-33.55-7.18-67.19-14-44.88-9.09-89.86-17.46-65.38-11.28-131-20.78-32.84-4.72-65.76-8.92-33-3.81-66-7l7.2,24.83c10.27,2.75,20.61,5.24,31,7.54s20.82,4.32,31.23,6.49c20.25,4.1,40.57,7.7,60.72,11.18l18.84,3.22c37.52,6.48,74.29,13,108.94,22.57,34.5,9.94,66.89,22.67,95.68,41.09-50.59,2.27-101.52-2.23-151.9-10.62a759.61,759.61,0,0,1-98.71-24c-48.45-15.52-95.56-34.35-139.79-57.38-22.12-11.48-43.54-23.91-64.09-37.16q-15.41-9.95-30.16-20.49c-9.84-6.94-19.45-14-28.8-21.26-27-19.66-69.82-33.79-113.07-45.32l61.56,14.19,10.74-22.09-76.79-66.33,21.35,8.36,78.75,27.21L2185,340.21l17.9,5.89c6,1.94,11.9,4.06,17.86,6.08a228.28,228.28,0,0,0,44.8,11.63h0c23.76,3.77,48.29,4.42,73.69,4,12.7-.23,25.62-.73,38.77-1.26l19.88-.78,10.08-.35c3.37-.09,6.74-.12,10.14-.17l-7.52-2.94-7.54-2.86L2388,353.73l-30.18-11.38c-9.11-9.34-12.86-17.9-12.61-25.73.6-16.89,20.32-30,46.51-39,6.54-2.24,13.49-4.21,20.64-5.91q5.37-1.28,10.85-2.35c3.66-.72,7.32-1.29,11-1.83a283.68,283.68,0,0,1,42.46-3.05l6.52,6.41c-28,8.38-55.49,14.14-67.11,38.58,44.56,5,52.55-20,80.11-25.79l9.47,33.3,47,34.5c-32.82,36.55,57,41.48,43.2,76.06,6.94,3.35,13.85,6.87,20.76,10.36l20.72,10.47,41.38,20.93,54.54-29.5c-29-26.57-59-54-79.76-83-10.39-14.5-18.5-29.4-23-44.79s-5.52-31.18-1.61-47.68" transform="translate(-0.15)"/><path class="cls-10" d="M2745.12,371c-9,43.28,13.29,85.66,51.82,122.15,38.45,37,93.14,68.43,149.88,89-56.74-20.61-111.43-52-149.88-89-38.53-36.49-60.79-78.87-51.82-122.15" transform="translate(-0.15)"/><path class="cls-11" d="M2496.22,283.7c-27.56,5.81-35.55,30.77-80.11,25.79,44.56,5,52.55-20,80.11-25.79" transform="translate(-0.15)"/><path class="cls-3" d="M2001.75,254.64l11.88,9.43,11.84,9.6,23.65,19.19,21.35,8.36,78.75,27.21,4.44-4.61-67-30.75,77,13.81c-26.8-22.28-63.34-30.22-99.51-40.73l-31.2-5.84-15.6-2.92c-5.2-1-10.42-1.83-15.63-2.75m68.72,46.58,78.75,27.21-78.75-27.21" transform="translate(-0.15)"/><polyline class="cls-4" points="2070.32 301.22 2149.07 328.43 2070.32 301.22"/><polyline class="cls-3" points="2495.04 267.69 2496.07 283.7 2483.07 270.91 2495.04 267.69"/><polyline class="cls-3" points="2753.31 784.85 2753.41 803.43 2753.31 784.85"/><path class="cls-12" d="M2497.52,4.25c42.76,44.32,42.77,88.52,31.92,132.48s-32.62,87.71-34.25,131l-12,3.22-6.52-6.41a283.68,283.68,0,0,0-42.46,3.05c-3.67.54-7.33,1.11-11,1.83s-7.27,1.5-10.85,2.35c-7.15,1.7-14.1,3.67-20.64,5.91-26.19,8.94-45.91,22.09-46.51,39-.25,7.83,3.5,16.39,12.61,25.73L2388,353.73l15.08,5.69,7.54,2.86,7.52,2.94c-3.4,0-6.77.08-10.14.17l-10.08.35-19.88.78c-13.15.53-26.07,1-38.77,1.26-25.4.46-49.93-.19-73.69-4a228.83,228.83,0,0,1-44.82-11.64c-6-2-11.89-4.14-17.86-6.08l-17.9-5.89-35.82-11.78,4.44-4.61,32.37,9.95c10.78,3.34,21.57,6.57,32.31,10.1a122.83,122.83,0,0,0-27.72-19.82A205.86,205.86,0,0,0,2158,310.33c-22.87-7.59-47.57-12.5-71.33-17.26l77,13.81c-26.8-22.28-63.34-30.22-99.51-40.73l12.9-11.27L2040,197l80,48.42,33.35-21.43c-23.16-48-52.53-107.48-107.37-152.22,36.38,26.3,67.12,57.7,101.86,86.39,17.37,14.35,35.75,28,56.35,40q7.72,4.51,15.89,8.7c2.72,1.4,5.49,2.75,8.29,4.1s5.64,2.71,8.52,4a314.85,314.85,0,0,0,36.91,14l11-22,19.81,18.94c-9.53-23.88-27.42-43.17-44.92-62.41-8.75-9.59-17.38-19.27-24.84-29.31s-13.73-20.63-17.68-32.37l15.25,12.72,7.61,6.36,7.6,6.46,30.31,25.87c.32-14.42-7.09-28.1-15.57-41.29s-18-25.93-21.88-38.26A104,104,0,0,1,2256.84,92a168.67,168.67,0,0,1,12.63,20.92c7.51,14.5,13.52,29.79,20,44,12.9,28.45,27.54,52.64,59.56,57.73,1,.15,1.94.31,2.92.44l4.5.74c28.51,4.53,50.83,1.93,67.75-5.74a71.33,71.33,0,0,0,11.69-6.67,65.85,65.85,0,0,0,9.71-8.28,70.32,70.32,0,0,0,13.83-21c6.82-15.71,9-34.5,7.14-54.31a186.18,186.18,0,0,0-16.72-60.32L2460,67.72l10.14,8.35c43.69-8.32,12.33-50.65,27.4-71.82" transform="translate(-0.15)"/><path class="cls-13" d="M2345.25,316.62c-.25,7.83,3.5,16.39,12.61,25.73L2388,353.73l15.08,5.69,7.54,2.86,7.52,2.94-7.52-2.94-7.54-2.86L2388,353.73l-30.18-11.38c-9.11-9.34-12.86-17.9-12.61-25.73" transform="translate(-0.15)"/><path class="cls-13" d="M2418.18,365.22c-3.4,0-6.77.08-10.14.17l-10.08.35-19.88.78c-13.15.53-26.07,1-38.77,1.26-25.4.46-49.93-.19-73.69-4,23.76,3.77,48.29,4.42,73.69,4,12.7-.23,25.62-.73,38.77-1.26l19.88-.78,10.08-.35c3.37-.09,6.74-.12,10.14-.17" transform="translate(-0.15)"/><polyline class="cls-14" points="2086.55 293.07 2163.55 306.88 2086.55 293.07"/><polyline class="cls-14" points="2153.51 323.82 2149.07 328.43 2153.51 323.82"/><path class="cls-12" d="M1933.85,340.1l-15.35,3.22-20.44,13.05,21.34,8.05-21.34-8.05-6.38,20.13,47.51,35.11L1911,400l40,34.11-52.42-25.25-1.7,12.89,16.9,12.71c21.22,8,43.69,13.62,65.6,19.78l8.19,2.35q4.07,1.25,8.09,2.55c5.37,1.73,10.68,3.55,15.89,5.5a212.2,212.2,0,0,1,30,13.63,325.43,325.43,0,0,1-56.79-3.7c-39.84-5.25-79.53-15.88-121.44-23.16L1848,454.68c26.36,11.34,54.74,21,81,32.62a285.83,285.83,0,0,1,37.16,19.44,158,158,0,0,1,16.36,11.76,135.07,135.07,0,0,1,14.34,13.73c-4-.33-7.91-.77-11.76-1.33a228.18,228.18,0,0,1-26.91-5.58,247.18,247.18,0,0,1-24.93-8.39c-16.11-6.35-31.36-14-46.67-21.64-30.6-15.29-61.44-30.62-99.67-35.65-2-.28-4.07-.42-6.1-.64,33.55,27.9,89.36,53.71,122.53,81.64-27.64-14.14-54.26-29.45-80.41-45.35q-19.61-11.93-38.94-24.22l-38.72-24.13-7.31-.86c-35.87-9.47-69.88-19.38-103-29.18l-24.71-7.33L1598,405.94c-4.08-1.21-8.14-2.42-12.22-3.54-16.28-4.56-32.46-9-48.68-13.33l40.29,21.2,10.06,5.29c3.35,1.77,6.69,3.62,10,5.42l20,10.87-20-10.87c-3.35-1.8-6.69-3.65-10-5.42l-10.06-5.29-40.29-21.2q-39-11.91-76.87-23.83-19-6-37.78-12.08L1403.65,347l-9.37-3.07-9.37-3c-49.92-16-99.41-32.86-149.79-51.8l76.58,56.59c-26.91,10.6-54.82,12.63-82.11,12.76-13.64.08-27.12-.41-40.24-.35a305,305,0,0,0-38,2.27q14.17,4.53,27.82,9.55c4.55,1.67,9.07,3.35,13.55,5.08s8.92,3.59,13.34,5.41c17.67,7.28,34.89,14.8,52,22.07,34.21,14.53,68,28,104,36.53-36-8.49-69.78-22-104-36.53-17.11-7.27-34.33-14.79-52-22.07q-6.63-2.73-13.34-5.41c-4.48-1.73-9-3.41-13.55-5.08q-13.67-5-27.82-9.55l-14.85,1.47a345.1,345.1,0,0,0,47.4,30.72l6.26,3.37,6.31,3.38q6.35,3.35,12.75,6.55c8.54,4.29,17.17,8.42,25.79,12.46,34.49,16.19,69,31.08,98.54,49.42-43-11.73-77.4-38.36-128.3-45.59l13.68,11.68,21.71,4.59-21.71-4.59a343.23,343.23,0,0,1-33.86-8.75c-10.87-3.28-21.37-7-31.62-11.08-20.5-8.1-40-17.43-59.58-26.77-23.28,15.15-48.31,30.16-73.9,41.23-6.4,2.76-12.83,5.28-19.29,7.5s-12.91,4.08-19.39,5.74a151.46,151.46,0,0,1-38.73,4.87L917,445l53.66,19L953,455.1l18.66,8.35,9.32,4.18q4.66,2.07,9.31,4.24l37.18,17.22,65.65,49.4-79.17-13.94,20.38,19.83c39.29,10.86,74.7,24,101.91,47l-87.31,1.06-53,29.79,4,44.65c28.05,36.63,76,60.85,135.64,65.45,3.53.27,7.12.49,10.73.63l-.33-39.14,15.73,27.29,34.66-25.59,31.82,8.13c20-21.7,44-26,69.08-23.76,12.57,1.14,25.43,3.94,38.26,7.06s25.63,6.48,38,9.17l-10.12-7.59-10.14-7.47a60.48,60.48,0,0,1,10-9.6,44.64,44.64,0,0,1,10.4-5.76,45.66,45.66,0,0,1,21.49-2.57c21.78,2.28,43.77,16.83,62.66,23.52l40.24,28.16c1.36,0,2.63-.1,3.91,0l-1.76,1.55,1.48,1,30,7,15,3.53,7.5,1.76,7.49,1.87,30.41,19.3,16.41,15-16.41-15-20.56-10.29,16.1,17.62-34.26-17.14,67.56,42,24,10.69-7.44,1.74,29.6,24.44,64,36.35c15.7-.66,31.39-1.13,47.1-1.71l-40.34,5.17c-7.3.8-14.61,1.74-21.91,2.61l17.5,4,17.46,4.27,34.92,8.54-5.19,12.43c27.33,11.46,62,21.28,97,28.5l3.5.46c20.49-.76,41-1.74,61.49-2.14l-13.77,1.94-6.89,1-6.89,1.06-27.56,4.24.35,23.65a226.63,226.63,0,0,0,26.34.08c9-.41,18.07-.94,27.27-1.51,18.38-1.07,37.09-1.84,55.42.82a124.53,124.53,0,0,1,26.71,6.78l-6.28-6.15,53.23,5.1c15.73-2.86,31.3-6.05,46.71-9.4q23.07-4.8,45.7-10.34l-21.07-22.16,21.07,22.16c54.26-13.18,106.28-29.77,154.64-50.5,6.05-2.62,12-5.15,17.94-7.82s11.77-5.36,17.57-8.15q17.37-8.36,34-17.55a565.17,565.17,0,0,0,62.91-40.32c-26.27,3.37-52.49,6.76-77.94,11.27-12.73,2.25-25.26,4.78-37.51,7.74s-24.25,6.62-35.85,10.68a572.71,572.71,0,0,1-100.43,10.25q-24.89.31-49.69-1.55-6.21-.46-12.42-1.07l-12.44-1.24q-12.46-1.29-25-3.11c-7.33-1.06-14.64-2.25-22-3.59l40.42-15.15c6.74-2.51,13.5-5.08,20.25-7.53l20.24-7.31-3.56-.57,20.16-12.59-16.6,13.16c56.89,9,108.91,2.83,159.85-3.89l19.06-2.51c6.32-.74,12.64-1.47,18.94-2.14,12.62-1.36,25.23-2.51,37.86-3.23,25.28-1.45,50.7-1.19,76.65,2.63l-20,9.75,47.45-3.7,23.74-1.84c7.92-.61,15.84-1.27,23.74-1.74l95-6.11q40.05-26.93,80.41-53.79l-56.33-15.77,34.65-6.77c5.55-3.62,25.34-7.08,28.4-13.09,3.87-7.74-19.86-19.71-137.07-41.54-10.33-1-20.65-2.12-31-3.08l-31.05-2.72c36-4.53,70.31-9.12,102.87-16.67s63.34-17.63,92.24-32.09l-43.14-29.18c-50.56,2.27-101.52-2.23-151.9-10.62a763.67,763.67,0,0,1-98.71-24c-48.45-15.52-95.56-34.35-139.79-57.38-22.12-11.48-43.54-23.91-64.09-37.16q-15.41-9.95-30.16-20.49c-9.84-6.94-19.45-14-28.8-21.26-27-19.66-69.82-33.79-113.07-45.32l-7.34-1.07,20.16,16.08L2034.91,367l45.38,48.63L2019.53,370l-11.72,3.57,51.31,33.73-59-32.24L1984,383.43l-50.18-43.33m-542.6,101.7-9.85-4.53q-4.87-2.31-9.7-4.71c-6.43-3.21-12.79-6.56-19.15-10-12.71-6.83-25.42-13.94-38.62-20.85-26.4-13.82-54.8-26.84-89.2-35.19,34.4,8.35,62.8,21.37,89.2,35.19,13.2,6.91,25.91,14,38.62,20.85,6.36,3.41,12.72,6.76,19.15,10q4.83,2.4,9.7,4.71l9.85,4.53,21.11,10.05,14.32,4.11-14.32-4.11-21.11-10.05,4.41-7.39,57.6,13.87-57.6-13.87-4.41,7.39M1695,464.59c-25.33-4.3-45.08-17.11-64.44-29.87-9.67-6.38-19.25-12.75-29.36-18a104.11,104.11,0,0,0-32.59-11.25,104.11,104.11,0,0,1,32.59,11.25c10.11,5.28,19.69,11.65,29.36,18,19.36,12.76,39.11,25.57,64.44,29.87m43.74,5.17,3.65.43,35.81,9.44-35.81-9.44-3.65-.43c-42.47-15.51-72.89-40-115.86-53,43,12.92,73.39,37.45,115.86,53m-306.1-36.7,22.7-5.48-22.7,5.48m997.53,237.65,97.95-9.48-97.95,9.48m0,0,97.95-9.48-97.95,9.48m0,0-14.8.09-15.23,2.64-14.81.09L2371,676.05l-1.47.16c-4.7,0-9.4,0-14.11.09l-15.22,2.84-14.8.28-15.23,2.87-15.2,2.83-11.18.86-15.18,2.85-15.19,2.85-15.13,2.86-11.6,3.42-15.14,2.86-11.93,6c56.24,1.89,106.37-9,156.35-20.69l5.36-.93,4.14-1.17,18.37-4,4.35-.74,15.18-2.67,8.64-2.41c6.08-1.2,12.13-2.44,18.25-3.5m234,57.72c-6.14-1.57-12.44-2.94-18.86-4.13-4.35-.81-8.88-1.27-13.34-1.87l-14.36-2.67-14.75-.1-18.4-.79-9.12,1.46q-12.18.79-24.6,2.75l-.34.06-15.24,2.62,15.24-2.62-15.24,2.62,15.24-2.62.13,0c-5.13.87-10.17,1.47-15.37,2.64a113,113,0,0,1,19.65-2.62l10.4.08,18.32.77,5.82,0c5.63.45,11.32,1,17,1.55l9.84,1.83,10.56.09c12.84,1.06,25.46,1.74,37.41.92M1146,693.83l.64-7.79-13.76-8.88L1146,693.83" transform="translate(-0.15)"/><path class="cls-2" d="M2430.21,670.71c-19.68,1.86-39.49,3.53-59.26,5.34l14.42-2.52,14.81-.09,15.23-2.64,14.8-.09" transform="translate(-0.15)"/><path class="cls-2" d="M2412,674.21l-8.64,2.41-15.18,2.67-4.35.74q14-3.06,28.17-5.82" transform="translate(-0.15)"/><path class="cls-2" d="M2369.48,676.21l-11.08,1-11.08,1.2q-11.07,1.23-22.07,2.6c-14.65,1.82-29.18,3.86-43.47,6.25-28.59,4.77-56.25,10.92-82.21,19.54l11.93-6,15.14-2.86,11.6-3.42,15.13-2.86,15.19-2.85,15.18-2.85,11.18-.86,15.2-2.83,15.23-2.87,14.8-.28,15.22-2.84c4.71-.08,9.41-.06,14.11-.09" transform="translate(-0.15)"/><path class="cls-2" d="M2365.42,684l-4.14,1.17-5.36.93,9.5-2.1" transform="translate(-0.15)"/><path class="cls-15" d="M1502,714.79l-1.76,1.55-2.15-1.52c1.36,0,2.63-.1,3.91,0" transform="translate(-0.15)"/><polyline class="cls-14" points="2141.95 913.56 2163.02 935.72 2141.95 913.56"/><polyline class="cls-14" points="952.84 455.1 970.53 464.04 952.84 455.1"/><polyline class="cls-14" points="1013.78 524.55 1092.96 538.49 1013.78 524.55"/><polyline class="cls-14" points="1136.07 591.39 1048.76 592.45 1136.07 591.39"/><polyline class="cls-16" points="2430.06 670.71 2415.26 670.8 2400.03 673.44 2385.22 673.52 2370.8 676.05 2385.22 673.52 2400.03 673.44 2415.26 670.8 2430.06 670.71"/><polyline class="cls-16" points="2411.81 674.21 2403.17 676.62 2387.99 679.28 2383.64 680.03 2387.99 679.28 2403.17 676.62 2411.81 674.21"/><path class="cls-16" d="M2369.48,676.21c-4.7,0-9.4,0-14.11.09l-15.22,2.84-14.8.28-15.23,2.87-15.2,2.83-11.18.86-15.18,2.85-15.19,2.85-15.13,2.86-11.6,3.42-15.14,2.86-11.93,6,11.93-6,15.14-2.86,11.6-3.42,15.13-2.86,15.19-2.85,15.18-2.85,11.18-.86,15.2-2.83,15.23-2.87,14.8-.28,15.22-2.84c4.71-.08,9.41-.06,14.11-.09" transform="translate(-0.15)"/><polyline class="cls-16" points="2365.27 684.03 2361.14 685.2 2355.78 686.13 2361.14 685.2 2365.27 684.03"/><polyline class="cls-16" points="2528.01 661.23 2430.06 670.71 2528.01 661.23"/><polyline class="cls-16" points="2528.01 661.23 2430.06 670.71 2528.01 661.23"/><path class="cls-13" d="M2053.61,367.09c43.25,11.53,86.11,25.66,113.07,45.32,9.35,7.27,19,14.32,28.8,21.26s19.89,13.86,30.16,20.49c20.55,13.25,42,25.68,64.09,37.16,44.23,23,91.34,41.86,139.79,57.38-48.45-15.52-95.56-34.35-139.79-57.38-22.12-11.48-43.54-23.91-64.09-37.16q-15.41-9.95-30.16-20.49c-9.84-6.94-19.45-14-28.8-21.26-27-19.66-69.82-33.79-113.07-45.32" transform="translate(-0.15)"/><path class="cls-13" d="M2680.13,583.29c-50.56,2.27-101.52-2.23-151.9-10.62,50.38,8.39,101.31,12.89,151.9,10.62" transform="translate(-0.15)"/><path class="cls-2" d="M2617.66,719.76l14.36,2.67a280.24,280.24,0,0,0-56.63-2.1l9.12-1.46,18.4.79,14.75.1" transform="translate(-0.15)"/><path class="cls-2" d="M2626.81,727.51l-10.56-.09-9.84-1.83q10.24,1.06,20.4,1.92" transform="translate(-0.15)"/><path class="cls-2" d="M2589.4,724l-5.82,0-18.32-.77-10.4-.08a255.12,255.12,0,0,1,34.54.9" transform="translate(-0.15)"/><path class="cls-2" d="M2550.79,723.08a.65.65,0,0,1-.21,0l-.13,0,.34-.06" transform="translate(-0.15)"/><polyline class="cls-3" points="2743.12 780.17 2735.47 781.39 2743.12 780.17"/><path class="cls-8" d="M2720.55,744.2c10.94,3.39,21.77,7,32.48,11s21.32,8.31,31.87,12.72c21.1,8.82,41.95,18.21,62.79,27.51s41.69,18.52,62.77,27q7.9,3.18,15.87,6.21l16,6c10.67,3.93,21.44,7.6,32.33,10.93l-30.32,12.13-15.14,6.08L2914,870l8.15-3.68c-11.5-4.07-26.44-7.37-42.87-10.65l-25.53-5c-26.21-5.24-53.6-11.37-75.72-21.09l-24.47-26.11.49-2.55-.6-16,24.41-11-34.6,6.35-7.64,1.22L2640.14,798q40.05-26.93,80.41-53.79" transform="translate(-0.15)"/><path class="cls-17" d="M2879.28,855.64c16.43,3.28,31.37,6.58,42.87,10.65-11.5-4.07-26.41-7.33-42.84-10.62l-25.56-5,25.53,5" transform="translate(-0.15)"/><polyline class="cls-17" points="2922 866.29 2913.86 869.97 2922 866.29"/><polyline class="cls-18" points="2753.31 784.85 2753.9 800.88 2753.41 803.43 2753.31 784.85"/><path class="cls-17" d="M2720.55,744.2q-40.37,26.87-80.41,53.79,40.05-26.93,80.41-53.79" transform="translate(-0.15)"/><path class="cls-8" d="M2767.47,582.22c13.55,2.44,27.73,6.5,42.26,11.31s29.41,10.53,44.29,16.71c29.75,12.36,59.48,26.63,86.5,39.67C2911.89,670.7,2875,686.53,2836.29,701c-19.37,7.23-39.22,14.12-58.76,21.1-9.77,3.52-19.45,7-29,10.67s-18.9,7.51-28,11.44l-56.33-15.77,34.65-6.77c5.55-3.62,25.34-7.08,28.4-13.09,3.87-7.74-19.86-19.71-137.07-41.54-10.33-1-20.65-2.12-31-3.08l-31.05-2.72c36-4.53,70.31-9.12,102.87-16.67s63.34-17.63,92.24-32.09l-43.14-29.18,30.38-2.28c12.32-2.7,26.34-2.89,41.48-1.12,5.05.58,10.18,1.34,15.48,2.33" transform="translate(-0.15)"/><path class="cls-17" d="M2723.27,612.47c-28.9,14.46-59.69,24.6-92.24,32.09s-66.83,12.14-102.87,16.67c36-4.53,70.31-9.12,102.87-16.67s63.34-17.63,92.24-32.09" transform="translate(-0.15)"/><path class="cls-17" d="M2727.27,708.57c-3.06,6-22.85,9.47-28.4,13.09l-34.65,6.77,34.65-6.77c5.55-3.62,25.34-7.08,28.4-13.09" transform="translate(-0.15)"/><path class="cls-19" d="M2589.39,503q45,8.32,89.86,17.46,33.63,6.84,67.19,14L2780,541.8l8.38,1.84,8.36,2,16.71,3.94q66.81,15.86,133.38,32.69a412.15,412.15,0,0,0,39.4,14.6,393.57,393.57,0,0,0,40.12,10.81q13.54,2.89,27.23,4.82c16,67.22,28,133.59,31.44,203.46l-110.39,29.6c-10.89-3.33-21.66-7-32.33-10.93l-16-6q-8-3-15.87-6.21c-21.08-8.48-41.92-17.7-62.77-27S2806,776.72,2784.9,767.9q-15.83-6.61-31.87-12.72c-10.71-4-21.54-7.59-32.48-11,9.09-3.93,18.45-7.72,28-11.44s19.22-7.15,29-10.67c19.54-7,39.39-13.87,58.76-21.1,38.75-14.46,75.6-30.29,104.23-51.08-27-13-56.75-27.31-86.5-39.67-14.88-6.18-29.75-11.88-44.29-16.71s-28.71-8.87-42.26-11.31h0c-5.26-1-10.39-1.74-15.44-2.32-15.14-1.77-29.16-1.58-41.48,1.12l-30.38,2.28c-28.79-18.42-61.18-31.15-95.68-41.09-34.65-9.52-71.42-16.11-108.94-22.59l-18.83-3.23c-20.18-3.48-40.49-7.05-60.73-11.15-10.41-2.17-20.85-4.17-31.23-6.49s-20.72-4.79-31-7.54l-7.2-24.83q33.06,3.18,66,7,32.93,4.19,65.76,8.92,65.67,9.45,131,20.79" transform="translate(-0.15)"/><path class="cls-14" d="M2589.39,503q-65.38-11.28-131-20.79-32.84-4.72-65.76-8.92-33-3.81-66-7,33.06,3.19,66,7,32.93,4.19,65.76,8.92,65.67,9.44,131,20.78" transform="translate(-0.15)"/><path class="cls-14" d="M2679.25,520.5q33.63,6.84,67.19,14L2780,541.8l8.38,1.84,8.36,2,16.71,3.94q66.81,15.86,133.38,32.69-66.59-16.77-133.38-32.69l-16.71-3.94-8.36-2L2780,541.8l-33.55-7.26q-33.55-7.18-67.19-14" transform="translate(-0.15)"/><path class="cls-14" d="M2396,505.23c20.24,4.1,40.55,7.67,60.73,11.15l18.83,3.23c37.52,6.48,74.29,13.07,108.94,22.59-34.65-9.52-71.42-16.09-108.94-22.57l-18.84-3.22c-20.15-3.48-40.47-7.08-60.72-11.18" transform="translate(-0.15)"/><path class="cls-20" d="M2767.43,582.21h0c-5.3-1-10.43-1.75-15.48-2.33,5.05.58,10.18,1.34,15.44,2.32" transform="translate(-0.15)"/><path class="cls-20" d="M2940.52,649.91C2911.89,670.7,2875,686.53,2836.29,701c-19.37,7.23-39.22,14.12-58.76,21.1-9.77,3.52-19.45,7-29,10.67s-18.9,7.51-28,11.44c9.09-3.93,18.45-7.72,28-11.44s19.22-7.15,29-10.67c19.54-7,39.39-13.87,58.76-21.1,38.75-14.46,75.6-30.29,104.23-51.08" transform="translate(-0.15)"/><path class="cls-3" d="M2946.82,582.22l26.75,7.34,13.36,3.68,13.34,3.84,53.3,15.37q-13.7-1.94-27.23-4.82a393.57,393.57,0,0,1-40.12-10.81,412.15,412.15,0,0,1-39.4-14.6" transform="translate(-0.15)"/><polyline class="cls-18" points="2946.67 582.23 2973.42 589.56 2986.79 593.24 3000.12 597.08 3053.43 612.45 3000.12 597.08 2986.79 593.24 2973.42 589.56 2946.67 582.23"/></g></g></g></svg>