<svg xmlns="http://www.w3.org/2000/svg" viewBox="0 0 1520.73 722.96"><defs><style>.cls-1,.cls-11{opacity:0.8;}.cls-11,.cls-2{fill:#6a628d;}.cls-3{fill:#3f3970;}.cls-4{fill:#2a2664;}.cls-5{fill:#272362;}.cls-6{fill:#7c749a;}.cls-7{fill:#322e68;}.cls-8{fill:#36316b;}.cls-9{fill:#585180;}.cls-10{fill:#2d2965;}.cls-12{fill:#3a346c;}.cls-13{fill:#302b67;}.cls-14{fill:#413b71;}.cls-15{fill:#302c67;}.cls-16{fill:#2c2865;}.cls-17{fill:#292563;}.cls-18{fill:#474175;}</style></defs><title>paint-purple</title><g id="Layer_2" data-name="Layer 2"><g id="Layer_1-2" data-name="Layer 1"><g class="cls-1"><path class="cls-2" d="M1492.33,447.73Q1503,503.79,1508.42,565l12.31,25.46-26.27-20.32c-47.25-23.65-106.68-33.67-145.23-72.64,11.37,3.36,24.91,3.74,37.8,3.7,4.28,0,8.52-.07,12.57-.08,8.08,0,15.44.13,21.27,1.25l-3.48,3.41,26.13-23.88,26.21,1.61-26.21-1.61,48.81-34.15"/><path class="cls-2" d="M729.05,550.71l1.12.84-6.19,9.1c-24.42,10.26-48.85,20.54-71.51,35.91Q611,618,565.91,618.08q-9,0-18.2-.78L584.31,590c1.21,0,2.41,0,3.59,0,51.82-.16,94.11-35,141.15-39.3"/><path class="cls-3" d="M551.45,693.78c-27.9,12-57.59,20.6-87.26,29.18l-.05-15.3c16.44-2.72,33.92-10.66,51.68-10.72a50.49,50.49,0,0,1,14.67,2l-3.5-3.39,24.46-1.78"/><polyline class="cls-3" points="488.53 682.08 462.34 692.36 458.84 688.98 488.53 682.08"/><polyline class="cls-3" points="735.24 249.5 742.24 254.59 733.49 251.21 735.24 249.5"/><polyline class="cls-3" points="465.77 114.35 478.02 122.81 465.77 114.35"/><polyline class="cls-3" points="478.02 122.81 479.77 122.81 478.02 122.81"/><polyline class="cls-3" points="308.32 602.75 317.08 611.22 308.32 602.75"/><polyline class="cls-3" points="413.48 151.92 416.99 155.3 413.48 151.92"/><polyline class="cls-3" points="1064.5 636.32 1084.18 656.41 1064.5 636.32"/><polyline class="cls-3" points="742.24 254.59 756.25 268.14 742.24 254.59"/><polyline class="cls-3" points="331.17 640.07 343.4 645.14 332.9 641.77 331.17 640.07"/><polyline class="cls-3" points="292.57 592.6 308.32 602.75 297.82 597.68 292.57 592.6"/><polyline class="cls-3" points="404.57 653.45 385.38 662.01 381.87 660.32 385.38 662.01 381.87 660.32 381.87 658.62 404.57 653.45"/><path class="cls-3" d="M308.39,623.14l22.78,16.93,12.23,5.07-10.5-3.37c22.76,15.23,47.27,28.75,73.5,37.17l3.46-8.51-35-5L385.38,662l-3.51-1.69-7-1.68,7,0-35-16.89,14,11.85-17.5-11.84h3.48l-15.74-13.55-22.74-5m35,18.6h0m31.49,16.9h0"/><polyline class="cls-4" points="332.9 641.77 343.4 645.14 332.9 641.77"/><polyline class="cls-4" points="381.87 660.32 385.38 662.01 381.87 660.32"/><polyline class="cls-3" points="266.35 589.28 275.1 592.65 287.34 597.71 324.1 621.4 331.13 628.18 308.39 623.14 266.35 589.28"/><polyline class="cls-3" points="374.88 658.64 381.87 658.62 381.87 660.32 374.88 658.64"/><polyline class="cls-4" points="374.88 658.64 381.87 658.62 374.88 658.64"/><polyline class="cls-3" points="262.85 587.59 269.71 588.74 275.1 592.65 266.35 589.28 262.85 587.59"/><polyline class="cls-3" points="268.09 587.58 269.71 588.74 268.09 587.58"/><polyline class="cls-3" points="272.77 589.26 292.57 592.6 282.08 592.63 272.77 589.26"/><polyline class="cls-4" points="381.87 660.32 385.38 662.01 381.87 660.32"/><polyline class="cls-3" points="268.09 587.58 272.77 589.26 268.09 587.58"/><polyline class="cls-3" points="269.71 588.74 272.77 589.26 282.08 592.63 287.34 597.71 275.1 592.65 287.34 597.71 275.1 592.65 269.71 588.74"/><polyline class="cls-4" points="268.09 587.58 272.77 589.26 269.71 588.74 268.09 587.58"/><polyline class="cls-4" points="272.77 589.26 282.08 592.63 272.77 589.26"/><polyline class="cls-4" points="275.1 592.65 287.34 597.71 275.1 592.65"/><polyline class="cls-3" points="282.08 592.63 292.57 592.6 297.82 597.68 282.08 592.63"/><polyline class="cls-4" points="292.57 592.6 297.82 597.68 292.57 592.6"/><polyline class="cls-4" points="282.08 592.63 292.57 592.6 282.08 592.63"/><polyline class="cls-3" points="282.08 592.63 297.82 597.68 306.59 607.85 289.09 597.71 287.34 597.71 282.08 592.63"/><polyline class="cls-4" points="282.08 592.63 297.82 597.68 282.08 592.63"/><polyline class="cls-4" points="339.89 641.75 343.39 641.74 339.89 641.75"/><polyline class="cls-3" points="343.39 641.74 346.88 641.73 360.89 653.59 343.39 641.74"/><polyline class="cls-4" points="343.39 641.74 346.88 641.73 343.39 641.74"/><polyline class="cls-4" points="346.88 641.73 360.89 653.59 346.88 641.73"/><polyline class="cls-3" points="324.1 621.4 334.6 626.47 331.13 628.18 324.1 621.4"/><polyline class="cls-3" points="287.34 597.71 289.09 597.71 324.1 621.4 287.34 597.71"/><polyline class="cls-4" points="287.34 597.71 289.09 597.71 287.34 597.71 289.09 597.71 287.34 597.71"/><polyline class="cls-5" points="287.34 597.71 289.09 597.71 287.34 597.71"/><polyline class="cls-3" points="429.54 260.67 455.8 277.58 426.05 262.38 429.54 260.67"/><polyline class="cls-3" points="441.74 253.83 466.29 280.95 434.78 257.25 441.74 253.83"/><path class="cls-3" d="M460.8,201.07c24.46,1.62,47.18,3.26,66.45,18.49L494,212.87h1.74l-35-11.79"/><polyline class="cls-3" points="460.8 201.07 495.77 212.86 494.02 212.87 460.8 201.07"/><polyline class="cls-4" points="460.8 201.07 495.77 212.86 460.8 201.07"/><polyline class="cls-3" points="448.73 252.1 457.49 260.58 441.74 253.83 448.73 252.1"/><polyline class="cls-3" points="377.12 259.13 387.62 262.5 377.12 259.13"/><path class="cls-6" d="M20.91,316.35l-8.72,5.13L0,335.11c19.25,10.14,38.5,20.29,61.22,23.63l-7-6.8c24.46,1.63,42,16.87,63,21.91-29.77-20.31-68.24-30.39-96.27-57.5m33.3,35.59h0"/><polyline class="cls-3" points="153.81 358.44 160.81 360.11 153.81 358.44"/><polyline class="cls-3" points="61.22 358.74 71.71 360.39 61.22 358.74"/><polyline class="cls-3" points="143.32 353.36 153.81 358.44 143.32 353.36"/><polyline class="cls-3" points="380.76 305.02 391.25 308.38 401.77 318.55 380.77 308.42 380.76 305.02"/><polyline class="cls-3" points="380.75 301.62 391.25 308.38 380.76 305.02 380.75 301.62"/><polyline class="cls-3" points="377.19 279.53 385.94 286.3 406.96 304.94 380.72 293.12 377.19 279.53"/><polyline class="cls-3" points="377.18 277.83 385.94 286.3 377.19 279.53 377.18 277.83"/><polyline class="cls-3" points="375.42 272.75 399.95 291.36 385.94 286.3 377.18 277.83 375.42 272.75"/><path class="cls-6" d="M380.77,308.42l21,10.13-10.52-10.17c19.24,5.05,41.95,6.68,61.21,15.13a105.89,105.89,0,0,1-30.86,4.25c-17.66.06-35.34-3-53-4l12.18-15.35"/><polyline class="cls-7" points="380.77 308.42 401.77 318.55 380.77 308.42"/><path class="cls-3" d="M359.87,327.18c26.24,10.12,55.95,15.13,75.25,37.17-1.93.16-3.8.24-5.66.24-36.1.12-61.44-29-98.09-28.87-1,0-1.94,0-2.93.06,17.52,15.24,45.51,27.06,63,42.3-28-13.5-54.25-30.42-80.51-47.34l48.91-3.56"/><polyline class="cls-3" points="401.95 376.35 438.74 408.55 423 401.78 401.95 376.35"/><polyline class="cls-3" points="487.74 430.48 492.98 432.17 494.72 433.86 487.74 430.48"/><path class="cls-3" d="M456.23,413.58l8.75,5.07,22.76,11.83,5.23,1.69-36.74-18.59m8.75,5.07,22.76,11.83L465,418.65"/><path class="cls-3" d="M423,401.78l15.74,6.77L465,418.65l22.76,11.83,7,3.38L493,432.17,526.26,461l-38.44-5c-19.3-20.34-43.8-35.56-64.82-54.2"/><polyline class="cls-4" points="423 401.78 438.74 408.55 423 401.78"/><polyline class="cls-4" points="487.74 430.48 494.72 433.86 487.74 430.48"/><polyline class="cls-4" points="464.98 418.65 487.74 430.48 464.98 418.65"/><polyline class="cls-4" points="464.98 418.65 487.74 430.48 464.98 418.65"/><path class="cls-3" d="M498.32,467.85c19.24,5,36.73,11.78,50.75,25.35l-41.91,5.22,5.2-10.22-14-20.35"/><polyline class="cls-3" points="892.22 169.12 907.98 182.66 902.76 186.09 892.22 169.12"/><path class="cls-8" d="M1370.85,150.62A879.74,879.74,0,0,1,1457,322l-52.43-4.93C1348,305.37,1291.29,265,1291.89,207.24a95.7,95.7,0,0,1,3.94-25.8c26.19-5.18,52.35-18.87,75-30.82"/><path class="cls-3" d="M1163,173.36l7,6.77c-12.21,6.84-13.9,23.85-34.86,25.61,3.44-17,15.66-23.84,27.85-32.38"/><path class="cls-9" d="M1229.34,152.75c14.11,23.16,32.67,29.86,52.11,29.8a106.11,106.11,0,0,0,14.38-1.11,95.7,95.7,0,0,0-3.94,25.8c-.6,57.79,56.08,98.13,112.67,109.86-43.31-2.83-86.6-5-129.91-5.84q-21.66-.42-43.31-.35c-41.85.13-83.69,1.73-125.52,5.43l5.29,15.28a294.57,294.57,0,0,0,30.2,2.49c9.79.36,19.58.39,29.27.36l9.06-.05c18.06-.05,35.77,0,52.75,2.26s33.17,6.46,48.24,14.81a236.86,236.86,0,0,1-71.91,11.16,265,265,0,0,1-48.2-4.32c-47.91-8.69-94.26-30-133.38-60.45-14-10.14-35-15.19-56-18.51l29.71,3.3,3.45-15.31-40.29-35.58,10.48,3.37L1013,245.23l35,8.4a78.59,78.59,0,0,0,21.68,2.85h0c22.64-.07,45.77-8.54,70.87-15.05L1110.8,233c-4.94-5.08-7.33-10.22-7.81-15.3-2-21.93,32.43-42.15,56.53-47.75l3.5,3.39c-12.19,8.54-24.41,15.37-27.85,32.38,21-1.76,22.65-18.77,34.86-25.61l7,20.39,24.51,16.92c-12.14,27.24,29.77,20.3,26.35,44.12l42,16.87,22.62-25.57c-31.53-27.11-64.82-55.91-63.21-100.11"/><path class="cls-4" d="M1291.89,207.24c-.6,57.79,56.08,98.13,112.67,109.86C1348,305.37,1291.29,265,1291.89,207.24"/><path class="cls-10" d="M1170,180.13c-12.21,6.84-13.9,23.85-34.86,25.61,21-1.76,22.65-18.77,34.86-25.61"/><path class="cls-3" d="M939.52,211.46l24.53,20.32,10.48,3.37L1013,245.23l1.74-3.4-33.23-13.5,36.68,1.58c-14-11.85-31.48-13.5-49-16.85l-29.7-1.6m21,5h0m14,18.65L1013,245.23l-38.47-10.08m0,0h0"/><polyline class="cls-4" points="974.53 235.15 1013 245.23 974.53 235.15"/><polyline class="cls-3" points="1168.27 169.94 1170.03 180.13 1163.02 173.36 1168.27 169.94"/><polyline class="cls-3" points="1333.42 472.03 1335.21 483.92 1333.42 472.03"/><path class="cls-11" d="M1148.5,0c45.57,47.46,14.34,113.86,19.77,169.94l-5.25,3.42-3.5-3.39c-24.1,5.6-58.55,25.82-56.53,47.75.48,5.08,2.87,10.22,7.81,15.3l29.72,8.41c-25.1,6.51-48.23,15-70.87,15.05a78.59,78.59,0,0,1-21.68-2.85l-35-8.4,1.74-3.4,31.48,6.69c-17.52-16.94-42-18.57-64.71-20.19l36.68,1.58c-14-11.85-31.48-13.5-49-16.85l5.22-8.51-21.07-33.94,40.27,23.68,13.91-17c-14-28.86-31.64-64.51-59.68-88.22,36.77,27.09,64.86,69.5,115.57,79.55l3.43-15.32,10.52,10.17c-12.32-28.85-38.57-42.38-49.13-71.24l31.52,27.09C1058,100.6,1042.21,87,1036.91,71.75c25.91,23.37,29.85,79.84,60,79.75.46,0,.92,0,1.38,0,.71,0,1.42,0,2.12,0,53.77-.16,53.28-63.71,30.7-110.62l10.52,8.48c19.18-10.27,1.64-34,6.83-49.34"/><path class="cls-12" d="M1103,217.72c.48,5.08,2.87,10.22,7.81,15.3l29.72,8.41L1110.8,233c-4.94-5.08-7.33-10.22-7.81-15.3"/><path class="cls-12" d="M1140.52,241.43c-25.1,6.51-48.23,15-70.87,15.05,22.64-.07,45.77-8.54,70.87-15.05"/><polyline class="cls-13" points="981.51 228.33 1018.19 229.91 981.51 228.33"/><polyline class="cls-13" points="1014.74 241.82 1013 245.23 1014.74 241.82"/><path class="cls-11" d="M913.5,272.74l-7,3.43-8.73,10.22,10.5,3.37-10.5-3.37L896.12,300l24.52,18.62-14-5.05,21,18.63-26.24-11.82,0,8.5,8.75,6.77c21,6.74,43.7,6.67,62.95,16.81a113.65,113.65,0,0,1-27,3c-19.09.06-38.47-3.38-58.66-4.47l-7,3.43c26.25,10.12,55.95,15.12,75.24,37.16-1.92.17-3.78.26-5.64.26-36.12.12-61.44-29-98.1-28.9-1,0-1.94.06-2.92.08,17.52,15.24,45.51,27.07,63,42.3-28-13.52-54.26-30.43-80.51-47.35h-3.5c-35-6.69-66.43-15.09-97.91-21.79l40.26,22-40.26-22c-50.68-13.43-97.91-26.89-146.89-45.44L621.91,323c-24.4,17.08-52.37,12-75.07,18.92,36.73,11.79,68.24,32.1,103.21,38.78-35-6.68-66.48-27-103.21-38.78l-7,1.73c29.77,27.11,68.23,37.19,98,57.49-21-5-38.5-20.28-63-21.9l7,6.77,10.51,1.67L581.92,386c-22.72-3.32-41.95-13.46-61.22-23.6-20.89,22.16-45.28,44.34-69.74,46.13l-12.22,0L465,418.65l-8.75-5.07L493,432.17,526.26,461l-38.44-5,10.5,11.87c19.24,5,36.73,11.78,50.75,25.35l-41.91,5.22L482.77,520.6l3.58,28.89c14.91,22.41,39.15,35.71,68.26,35.62,1.72,0,3.47-.05,5.23-.15L558,559.46l8.77,17,15.66-18.75,15.74,3.36c8.69-15.34,20-19.63,32.26-19.67s25.34,4.17,37.58,5.83l-10.51-8.46c5.55-10.9,12.26-14.47,19.3-14.49,10.59,0,21.91,7.9,31.35,10.93l20.87,15.52c.66-.06,1.27-.25,1.89-.29l-.77,1.13.77.57,29.72,5,15.76,10.15,8.77,8.47-8.77-8.47-10.5-5.07,8.76,10.17-17.49-8.45,35,22L804.44,591,801,592.7l15.77,13.55L850,624.85l22.7-5.17-19.21,6.86L843,630l35,5-1.72,8.5c14,5.06,31.49,8.41,49,10h1.73l29.69-6.9-26.18,10.28,1.79,15.29c16.83-1.39,34.75-10.48,52.92-10.54a46.64,46.64,0,0,1,13.45,1.83l-3.5-3.38,26.19-1.78c14.82-6.72,29.2-14.1,43.21-22l-11.87-12.11,11.87,12.11c50.4-28.33,94.94-64.49,127.58-111.14-24.43,10.26-48.85,20.54-69.76,35.91-31.43,15.41-62.9,22.55-95.66,22.66-3.61,0-7.21-.06-10.85-.22l36.61-27.32h-1.75l8.7-10.23-6.95,10.23c55.9-.18,97.71-37.71,148.37-39.57l-8.71,8.54,89-30.89L1314.14,450l-28-3.31,15.69-8.54c2.28-3,11.27-7.62,12.15-11.85,1.11-5.45-11.13-10.26-68.13-10.08l-29.68,3.49c33.15-13.69,62.8-29.1,87.18-54.68l-22.76-13.52a236.77,236.77,0,0,1-71.91,11.16,266.74,266.74,0,0,1-48.2-4.32c-47.91-8.69-94.26-30-133.38-60.45-14-10.14-35-15.19-56-18.51h-3.5l10.52,8.47-15.75-6.76L987,308.21l-31.51-23.7-5.24,3.43,26.28,16.92-29.76-15.22-7,6.82L913.5,272.74m-331.72,69h0m0,0h0M664,380.63c-26.24-11.82-49-32.14-82.24-38.85,33.22,6.71,56,27,82.24,38.85l10.5,5.06,7,1.68-7-1.68L664,380.63l1.73-5.11,28,5-28-5L664,380.63m82-36h0m0,0h0m63,28.71c-24.45-1.63-40.27-27.08-63-28.71,22.71,1.63,38.53,27.08,63,28.71M772.24,348h0m0,0h0M830,373.32h1.74l17.48,3.33-17.48-3.33H830c-21-6.75-36.76-20.3-57.73-25.33,21,5,36.74,18.58,57.73,25.33m-59.45-15.13h0m-87.31,13.88,10.47-5.14-10.47,5.14m141.5-3.85h0M809,373.38h0m21-.06h0m-179.92,7.35h0m43.67-.13h0m-237.49,33h0m714.61,23.26,45.37-17.15-45.37,17.15m0,0,45.37-17.15-45.37,17.15m0,0-7,1.72-7,3.42-7,1.72-6.61,3.25-.68.27-6.66,1.63-7,3.42-7,1.72-7,3.43-7,3.41-5.23,1.72-7,3.42-7,3.42-7,3.43-5.25,3.41-7,3.42-5.21,5.12c26.88-4.64,49.84-16.89,72.55-29.63l2.46-1.21,1.86-1.21c2.78-1.56,5.57-3.09,8.36-4.65l2-1,7-3.43,3.88-2.53c2.77-1.46,5.53-2.93,8.33-4.3m115.34,9.83c-3-.26-6.13-.37-9.26-.36-2.13,0-4.3.26-6.46.41l-7,0-7,1.72-8.75,1.72-4.18,2.05A111.53,111.53,0,0,0,1232.2,457l-.15.07-7,3.41,7-3.41-7,3.41,7-3.41.06,0c-2.35,1.14-4.68,2.09-7,3.43a46.49,46.49,0,0,1,9.06-3.93l4.92-1.21,8.71-1.73,2.75-.67c2.7-.39,5.43-.74,8.16-1.06l4.81,0,5-1.23a90.87,90.87,0,0,0,17.72-3.94m0,0h0M551,549.28h0m7,10.18,0-5.1-7-5.08,7,10.18"/><path class="cls-2" d="M1170.84,436.84c-9.14,3.41-18.36,6.72-27.56,10.11l6.61-3.25,7-1.72,7-3.42,7-1.72"/><path class="cls-2" d="M1162.51,441.14l-3.88,2.53-7,3.43-2,1q6.38-3.56,12.84-6.93"/><path class="cls-2" d="M1142.6,447.22c-27.53,10.13-54.79,21-78.16,37.55l5.21-5.12,7-3.42,5.25-3.41,7-3.43,7-3.42,7-3.42,5.23-1.72,7-3.41,7-3.43,7-1.72,7-3.42,6.66-1.63"/><path class="cls-2" d="M1141.31,452.72l-1.86,1.21-2.46,1.21,4.32-2.42"/><path class="cls-14" d="M730.94,550.42l-.77,1.13-1.12-.84c.66-.06,1.27-.25,1.89-.29"/><polyline class="cls-13" points="1052.63 624.21 1064.5 636.32 1052.63 624.21"/><polyline class="cls-13" points="456.23 413.58 464.98 418.65 456.23 413.58"/><polyline class="cls-13" points="487.82 455.98 526.26 460.96 487.82 455.98"/><polyline class="cls-13" points="549.07 493.2 507.16 498.42 549.07 493.2"/><polyline class="cls-15" points="1170.84 436.83 1163.86 438.56 1156.88 441.98 1149.89 443.7 1143.28 446.95 1149.89 443.7 1156.88 441.98 1163.86 438.56 1170.84 436.83"/><polyline class="cls-15" points="1162.51 441.14 1158.63 443.67 1151.67 447.1 1149.67 448.07 1151.67 447.1 1158.63 443.67 1162.51 441.14"/><polyline class="cls-15" points="1142.6 447.22 1135.93 448.85 1128.96 452.26 1121.98 453.99 1114.99 457.42 1108.02 460.83 1102.79 462.55 1095.81 465.98 1088.83 469.39 1081.87 472.82 1076.62 476.23 1069.65 479.65 1064.43 484.77 1069.65 479.65 1076.62 476.23 1081.87 472.82 1088.83 469.39 1095.81 465.98 1102.79 462.55 1108.02 460.83 1114.99 457.42 1121.98 453.99 1128.96 452.26 1135.93 448.85 1142.6 447.22"/><polyline class="cls-15" points="1141.31 452.72 1139.45 453.93 1136.99 455.14 1139.45 453.93 1141.31 452.72"/><polyline class="cls-15" points="1216.21 419.69 1170.84 436.83 1216.21 419.69"/><polyline class="cls-15" points="1216.21 419.69 1170.84 436.83 1216.21 419.69"/><path class="cls-12" d="M971.18,279.37c21,3.32,42,8.37,56,18.51,39.12,30.47,85.47,51.76,133.38,60.45-47.91-8.69-94.26-30-133.38-60.45-14-10.14-35-15.19-56-18.51"/><path class="cls-12" d="M1280.63,351.49a236.77,236.77,0,0,1-71.91,11.16,236.86,236.86,0,0,0,71.91-11.16"/><path class="cls-2" d="M1263.46,446.75l7,0a101.67,101.67,0,0,0-26.89,5.52l4.18-2.05,8.75-1.72,7-1.72"/><path class="cls-2" d="M1268.46,450.61l-5,1.23-4.81,0c3.29-.38,6.54-.79,9.79-1.25"/><path class="cls-2" d="M1250.51,452.92l-2.75.67-8.71,1.73-4.92,1.21a93.29,93.29,0,0,1,16.38-3.61"/><path class="cls-2" d="M1232.2,457l-.09,0-.06,0,.15-.07"/><polyline class="cls-3" points="1328.18 470.34 1324.68 472.05 1328.18 470.34"/><path class="cls-8" d="M1314.14,450c43.7,6.68,85.69,26.93,129.38,31.9l-26.13,23.88,3.48-3.41c-5.83-1.12-13.21-1.3-21.29-1.27-4,0-8.27.08-12.55.1-12.89,0-26.43-.34-37.8-3.7l-14-13.56v-1.7L1333.42,472l10.47-10.24-15.71,8.55-3.49,1.71-43.61,22.24L1314.14,450"/><path class="cls-16" d="M1399.58,501.08c8.08,0,15.46.15,21.29,1.27-5.83-1.12-13.19-1.28-21.27-1.25-4,0-8.29.06-12.57.08,4.28,0,8.52-.09,12.55-.1"/><polyline class="cls-16" points="1420.87 502.35 1417.39 505.76 1420.87 502.35"/><polyline class="cls-17" points="1333.42 472.03 1335.2 482.22 1335.21 483.92 1333.42 472.03"/><polyline class="cls-16" points="1314.14 449.98 1281.08 494.29 1314.14 449.98"/><path class="cls-8" d="M1321.24,340.22c26.14-.08,59.27,11.36,87,21.07-22.61,34.07-62.71,59.7-94.06,88.69l-28-3.31,15.69-8.54c2.28-3,11.27-7.62,12.15-11.85,1.11-5.45-11.13-10.26-68.13-10.08l-29.68,3.49c33.15-13.69,62.8-29.1,87.18-54.68l-22.76-13.52,14-5.14a46.53,46.53,0,0,1,19.22-5.75c2.41-.24,4.86-.37,7.42-.38"/><path class="cls-16" d="M1303.39,365c-24.38,25.58-54,41-87.18,54.68,33.15-13.69,62.8-29.1,87.18-54.68"/><path class="cls-16" d="M1314,426.28c-.88,4.23-9.87,8.85-12.15,11.85l-15.69,8.54,15.69-8.54c2.28-3,11.27-7.62,12.15-11.85"/><path class="cls-18" d="M1231.34,310.91q21.66-.06,43.31.35c43.31.85,86.6,3,129.91,5.84a140,140,0,0,0,39.34,5.61q6.55,0,13.09-.68c14.11,40.76,26.48,81.52,35.34,125.7l-48.81,34.15c-43.69-5-85.68-25.22-129.38-31.9,31.35-29,71.45-54.62,94.06-88.69-27.69-9.71-60.82-21.15-87-21.07h0c-2.55,0-5,.14-7.41.38a46.53,46.53,0,0,0-19.22,5.75l-14,5.14c-15.07-8.35-31.29-12.6-48.24-14.81s-34.69-2.33-52.75-2.27l-9.06,0c-9.7,0-19.49,0-29.27-.34a294.57,294.57,0,0,1-30.2-2.49l-5.29-15.28c41.83-3.71,83.67-5.3,125.52-5.43"/><path class="cls-13" d="M1231.34,310.91c-41.85.13-83.69,1.72-125.52,5.43,41.83-3.7,83.67-5.3,125.52-5.43"/><path class="cls-13" d="M1274.65,311.26c43.31.85,86.6,3,129.91,5.84-43.31-2.83-86.6-5-129.91-5.84"/><path class="cls-13" d="M1141.31,334.11c9.78.36,19.57.37,29.27.34l9.06,0c18.06-.06,35.77,0,52.75,2.27-17-2.22-34.69-2.31-52.75-2.26l-9.06.05c-9.69,0-19.48,0-29.27-.36"/><path class="cls-17" d="M1321.23,340.22h0c-2.56,0-5,.14-7.42.38,2.41-.24,4.86-.37,7.41-.38"/><path class="cls-17" d="M1408.2,361.29c-22.61,34.07-62.71,59.7-94.06,88.69,31.35-29,71.45-54.62,94.06-88.69"/><path class="cls-3" d="M1404.56,317.1,1457,322q-6.54.66-13.09.68a140,140,0,0,1-39.34-5.61"/><polyline class="cls-17" points="1404.56 317.1 1456.99 322.03 1404.56 317.1"/></g></g></g></svg>