<svg xmlns="http://www.w3.org/2000/svg" viewBox="0 0 1985.95 927.05"><defs><style>.cls-1,.cls-12{opacity:0.8;}.cls-12,.cls-2{fill:#f79a70;}.cls-3{fill:#f37442;}.cls-4{fill:#f15f2c;}.cls-5{fill:#f15b29;}.cls-6{fill:#f9a983;}.cls-7{fill:#f26734;}.cls-8{fill:#f36c38;}.cls-9{fill:#f68a5e;}.cls-10{fill:#f15f2d;}.cls-11{fill:#f26230;}.cls-13{fill:#f36f3c;}.cls-14{fill:#f26532;}.cls-15{fill:#f47644;}.cls-16{fill:#f26533;}.cls-17{fill:#f2612f;}.cls-18{fill:#f15d2b;}.cls-19{fill:#f47c4b;}.cls-20{fill:#f15e2c;}</style></defs><title>Asset 1</title><g id="Layer_2" data-name="Layer 2"><g id="Layer_1-2" data-name="Layer 1"><g class="cls-1"><path class="cls-2" d="M43.25,331.41Q26.93,256,17.29,173.48L0,139.53,35.51,166c63.33,30.13,142.65,41.43,195.22,92.88-15.23-4.18-33.21-4.22-50.3-3.7l-16.66.56c-10.72.32-20.46.39-28.22-.91l4.47-4.74-33.67,33.27-34.7-1.17,34.7,1.17-63.1,48.07"/><path class="cls-2" d="M1069.25,195l-1.47-1.24,9.31-11.75c17.28-5.93,34.67-11.59,51.87-18.19q12.91-4.92,25.66-10.62c8.5-3.76,16.94-7.86,25.28-12.39a258.07,258.07,0,0,1,61.2-16.47,256.53,256.53,0,0,1,62.94-1.16c4.23.42,8.48.93,12.74,1.56s8.53,1.42,12.81,2.28l-13.91,7.72-13.84,7.86-27.54,15.75c-1.67-.22-3.35-.39-5-.56-36.24-3.45-70.16,5.4-103,15.38-16.43,4.89-32.55,10.25-48.65,14.33-8,2.06-16.1,3.78-24.17,5.08a176.72,176.72,0,0,1-24.27,2.42"/><path class="cls-3" d="M1335.66,23.57c10.5-2.89,21.15-5.47,31.91-7.82q8.09-1.75,16.24-3.36c5.45-1,10.92-2,16.42-2.9q16.49-2.76,33.2-5.13l8.35-1.18,8.39-1.08L1467,0l-2.74,20.53c-24.43.23-51.06,7.86-76.71,4.7a81.55,81.55,0,0,1-20.87-5.16l4.52,5.12-35.52-1.62"/><path class="cls-3" d="M1424.38,50.12c13.15-3.09,26.39-5.85,39.65-8.74l4.43,5.23-22.07,1.68-11,.86-11,1"/><polyline class="cls-3" points="1035.72 601.21 1027.16 593.77 1038.09 599.05 1035.72 601.21"/><polyline class="cls-3" points="1353.65 815.58 1340.42 802.19 1353.65 815.58"/><polyline class="cls-3" points="1340.42 802.19 1338.31 801.92 1340.42 802.19"/><polyline class="cls-3" points="1664.62 196.94 1654.38 183.32 1664.62 196.94"/><polyline class="cls-3" points="1423.99 774.39 1420.41 769.23 1423.99 774.39"/><polyline class="cls-3" points="611.36 65.71 584.41 38.54 611.36 65.71"/><path class="cls-3" d="M1027.16,593.77q-8.43-9.74-17-19.34,8.52,9.63,17,19.34"/><polyline class="cls-3" points="1641.48 141.21 1625.22 131.37 1639.41 138.51 1641.48 141.21"/><polyline class="cls-3" points="1684.18 214.67 1664.62 196.94 1678.11 206.51 1684.18 214.67"/><polyline class="cls-3" points="1539.51 105.59 1568.88 98.63 1573.54 101.71 1568.88 98.63 1573.54 101.71 1573.18 103.98 1539.51 105.59"/><path class="cls-3" d="M1669.71,169.82l-14.07-14.34c-4.71-4.79-9.43-9.58-14.16-14.27l-16.26-9.84,14.19,7.15a497.62,497.62,0,0,0-45.86-37.09,360.25,360.25,0,0,0-51.34-30.31l-6.75,10.63c8.2,2.33,16.42,4.84,24.63,7.32l24.6,7.44-15.81,2.12,4.66,3.08,9.67,3.88-10-1.61,23.19,15.38L1619.44,135l-17.31-19.35,22.3,20.22-5-.87,19.2,22c5.18,2,10.37,4.19,15.55,6.34l15.52,6.43m-45.28-33.91,5,.87-5-.87"/><polyline class="cls-4" points="1639.41 138.51 1625.22 131.37 1639.41 138.51"/><polyline class="cls-4" points="1573.54 101.71 1568.88 98.63 1573.54 101.71"/><path class="cls-3" d="M1720.11,226.46l-11.36-7-15.87-10.18q-22.76-20.7-45.92-41.42l-8.32-10.83c5.18,2,10.37,4.19,15.55,6.34l15.52,6.43L1695.08,198c8.4,9.5,16.75,18.93,25,28.45"/><polyline class="cls-3" points="1583.21 105.59 1573.18 103.98 1573.54 101.71 1583.21 105.59"/><polyline class="cls-4" points="1583.21 105.59 1573.18 103.98 1583.21 105.59"/><polyline class="cls-3" points="1724.57 229.72 1715.25 226.19 1708.75 219.48 1720.11 226.46 1724.57 229.72"/><polyline class="cls-3" points="1717.21 228.21 1715.25 226.19 1717.21 228.21"/><path class="cls-3" d="M1711.1,224.64l-13.45-5-6.73-2.51-6.74-2.44q7.36,1.37,14.74,2.86l12.18,7.11"/><polyline class="cls-4" points="1573.54 101.71 1568.88 98.63 1573.54 101.71"/><polyline class="cls-3" points="1717.21 228.21 1711.1 224.64 1717.21 228.21"/><polyline class="cls-3" points="1715.25 226.19 1711.1 224.64 1698.92 217.53 1692.88 209.3 1708.75 219.48 1692.88 209.3 1708.75 219.48 1715.25 226.19"/><polyline class="cls-4" points="1717.21 228.21 1711.1 224.64 1715.25 226.19 1717.21 228.21"/><polyline class="cls-4" points="1711.1 224.64 1698.92 217.53 1711.1 224.64"/><polyline class="cls-4" points="1708.75 219.48 1692.88 209.3 1708.75 219.48"/><path class="cls-3" d="M1698.92,217.53q-7.37-1.49-14.74-2.86l-6.07-8.16c7,3.65,13.89,7.27,20.81,11"/><polyline class="cls-4" points="1684.18 214.67 1678.11 206.51 1684.18 214.67"/><path class="cls-4" d="M1698.92,217.53q-7.37-1.49-14.74-2.86,7.36,1.37,14.74,2.86"/><path class="cls-3" d="M1698.92,217.53c-6.92-3.75-13.86-7.37-20.81-11l-9.75-15.88,22.06,18.2,2.46.47,6,8.23"/><path class="cls-4" d="M1698.92,217.53c-6.92-3.75-13.86-7.37-20.81-11,7,3.65,13.89,7.27,20.81,11"/><polyline class="cls-4" points="1629.42 136.78 1624.43 135.91 1629.42 136.78"/><polyline class="cls-3" points="1624.43 135.91 1619.44 135.04 1602.13 115.69 1624.43 135.91"/><polyline class="cls-4" points="1624.43 135.91 1619.44 135.04 1624.43 135.91"/><polyline class="cls-4" points="1619.44 135.04 1602.13 115.69 1619.44 135.04"/><path class="cls-3" d="M1647,167.88c-4.55-3.21-9.11-6.28-13.68-9.42l5.36-1.41,8.32,10.83"/><path class="cls-3" d="M1692.88,209.3l-2.46-.47q-21.53-20.45-43.46-41,23.18,20.75,45.92,41.42"/><polyline class="cls-4" points="1692.88 209.3 1690.42 208.83 1692.88 209.3 1690.42 208.83 1692.88 209.3"/><polyline class="cls-5" points="1692.88 209.3 1690.42 208.83 1692.88 209.3"/><path class="cls-3" d="M1426,625.9c-5-4.59-9.92-9.24-14.92-13.79L1396,598.48l17.44,12.79,17.28,13L1426,625.9"/><path class="cls-3" d="M1409.29,632.76q-12.86-20.29-26-40.63l17.8,18.64c5.91,6.21,11.8,12.4,17.63,18.72l-9.42,3.27"/><path class="cls-3" d="M1375.57,700.17c-7.5-1.59-14.87-3.17-22-5a174.53,174.53,0,0,1-20.9-6.32c-13.45-5.11-25.81-12.5-36.71-24.05,13.56,4.51,27,9.38,40.43,14.08l-2.18-.27L1355,689.26l20.62,10.91"/><polyline class="cls-3" points="1375.57 700.17 1354.95 689.26 1334.18 678.6 1336.36 678.87 1356.04 689.41 1375.57 700.17"/><polyline class="cls-4" points="1375.57 700.17 1354.95 689.26 1334.18 678.6 1354.95 689.26 1375.57 700.17"/><polyline class="cls-3" points="1400.16 633.85 1390.69 620.98 1409.29 632.76 1400.16 633.85"/><polyline class="cls-3" points="1491.57 638.3 1479.12 631.64 1491.57 638.3"/><path class="cls-6" d="M1952.42,667.4l12.82-3.19L1986,651.49c-19.55-20.77-39.63-41.44-67-54.26l6.21,11.41a91.46,91.46,0,0,1-20.37-10.8A181.54,181.54,0,0,1,1887.4,584c-11.05-9.63-21.49-19.69-34-26.56,15.48,18.35,34.33,34.35,52.3,51.48s35,35.53,46.76,58.44"/><polyline class="cls-3" points="1801.3 565.42 1792.91 560.97 1801.3 565.42"/><polyline class="cls-3" points="1918.92 597.23 1906.3 591.18 1918.92 597.23"/><polyline class="cls-3" points="1812.97 575.47 1801.3 565.42 1812.97 575.47"/><polyline class="cls-3" points="1497.07 576.28 1484.4 569.6 1473.1 553.81 1497.8 571.75 1497.07 576.28"/><polyline class="cls-3" points="1496.33 580.83 1484.4 569.6 1497.07 576.28 1496.33 580.83"/><path class="cls-3" d="M1496,611.05l-9.6-10.85-11.34-14.64q-5.68-7.34-11.44-14.57c5.19,3.45,10.34,7,15.49,10.57l15.4,10.62,1.49,18.87"/><polyline class="cls-3" points="1495.62 613.32 1486.39 600.2 1495.99 611.05 1495.62 613.32"/><path class="cls-3" d="M1496.72,620.47q-13.4-15-27-29.93l16.69,9.66,9.23,13.12,1.1,7.15"/><path class="cls-6" d="M1497.8,571.75l-24.7-17.94,11.3,15.79c-2.94-1.35-6-2.63-9-3.88l-4.66-1.85-4.75-1.75c-6.38-2.32-12.92-4.59-19.44-7s-13-5-19.35-7.87a152.94,152.94,0,0,1-18.31-9.7c3.46-.59,6.91-1,10.33-1.29,1.71-.13,3.42-.23,5.12-.29s3.4-.05,5.09,0a154.36,154.36,0,0,1,20.07,1.7c5.69.84,11.35,1.94,17,3.19,2.82.62,5.63,1.27,8.43,2l8.39,2.23c11.17,3,22.3,6.24,33.53,8.77l-19,17.94"/><polyline class="cls-7" points="1497.8 571.75 1473.1 553.81 1497.8 571.75"/><path class="cls-3" d="M1528.77,551.16c-3.92-2.46-7.94-4.74-12-7s-8.18-4.44-12.3-6.65c-8.24-4.41-16.5-8.86-24.42-13.77-15.87-9.68-30.41-21.07-40.85-37.74,2.55.16,5,.43,7.44.79a100.13,100.13,0,0,1,32.22,11c9.87,5.28,19.09,11.79,28.29,18.25,18.44,12.83,36.66,26.13,60.23,30.21,1.24.22,2.5.43,3.78.59-9.41-12.14-22.49-23.75-35.69-35.38l-9.88-8.66c-3.26-2.88-6.48-5.76-9.58-8.66a183.32,183.32,0,0,1-16.93-17.7,544,544,0,0,1,48.27,38.83q11.57,10.32,22.78,21l5.6,5.31,5.55,5.4,11,10.85L1576.45,556c-5.29-.61-10.61-1.08-15.9-1.63l-31.78-3.19"/><path class="cls-3" d="M1485,476.52q-20.73-25.17-42-50.38l19.5,12.19q11.34,19.11,22.47,38.19"/><polyline class="cls-3" points="1381.85 387.85 1375.14 384.7 1373.1 382.13 1381.85 387.85"/><path class="cls-3" d="M1420.79,416.16l-10.7-8.4c-9.37-6.67-18.78-13.4-28.24-19.92l-6.71-3.14c15.33,10.3,30.53,20.92,45.65,31.46m-10.7-8.4c-9.37-6.67-18.78-13.4-28.24-19.92,9.46,6.52,18.87,13.25,28.24,19.92"/><path class="cls-3" d="M1462.53,438.33,1443,426.14c-10.93-6.18-21.92-12.24-32.94-18.38-9.37-6.67-18.78-13.4-28.24-19.92l-8.75-5.71,2,2.57-19.89-22.12-10-11.08-10.07-10.95c4.26,1.06,8.51,2.08,12.76,3.17l12.76,3.3,25.47,6.6q4.21,5.73,8.75,11.19c3,3.67,6.11,7.31,9.28,10.86,6.33,7.13,12.92,14,19.56,20.88s13.34,13.58,19.87,20.51,12.9,14,18.91,21.27"/><polyline class="cls-4" points="1462.53 438.33 1443.03 426.14 1462.53 438.33"/><polyline class="cls-4" points="1381.85 387.85 1373.1 382.13 1381.85 387.85"/><path class="cls-4" d="M1410.09,407.76c-9.37-6.67-18.78-13.4-28.24-19.92,9.46,6.52,18.87,13.25,28.24,19.92"/><path class="cls-4" d="M1410.09,407.76c-9.37-6.67-18.78-13.4-28.24-19.92,9.46,6.52,18.87,13.25,28.24,19.92"/><path class="cls-3" d="M1374,335.9c-25.16-10.14-47.76-21.78-64.83-42.22l29-.25,14.49-.11,14.51,0-8.77,12.83L1374,335.9"/><path class="cls-3" d="M830.76,700.93c-6.5-6.31-13-12.63-19.57-18.87l6.79-4.48,12.78,23.35"/><path class="cls-8" d="M214.42,728.71A1240.6,1240.6,0,0,1,94.86,500l69.23,4.71a235.92,235.92,0,0,1,55.2,17.45A203.44,203.44,0,0,1,267.67,553c28.39,24.77,47.46,57.53,47.92,96.63a134.14,134.14,0,0,1-4.36,35c-34,7.75-67.65,27.11-96.81,44.06"/><path class="cls-3" d="M483.73,692.69l-9.16-9.08c15.68-9.4,17.63-32.42,44.79-35.07-4.29,23.05-20,32.45-35.63,44.15"/><path class="cls-9" d="M398.34,721.77c-9.41-15.5-20.17-25.44-31.77-31.39s-24-7.93-36.66-7.64a128.19,128.19,0,0,0-18.68,1.91,134.14,134.14,0,0,0,4.36-35c-.46-39.1-19.53-71.86-47.92-96.63a203.44,203.44,0,0,0-48.38-30.82,235.92,235.92,0,0,0-55.2-17.45c57.12,2.25,114.14,3.75,171.06,3.73q28.47,0,56.89-.61c55-1.11,109.81-4,164.66-9.15l-7.05-20.64a360.21,360.21,0,0,0-39.72-3.13c-12.88-.36-25.75-.27-38.51-.11l-11.91.21c-23.76.39-47.05.58-69.46-2s-43.81-7.92-63.91-18.81A292.47,292.47,0,0,1,372.88,442a312.91,312.91,0,0,1,47.8-4.57,332,332,0,0,1,63.64,5.05c63.31,11.09,124.52,39.74,175.36,81.35,9.11,6.88,20.48,12.14,33,16.26s26.13,7,39.72,9.56c-12.85-1.74-25.74-3.29-38.62-4.94l-4.69,20.66c17.3,16.23,34.51,32.43,51.57,48.81l-13.46-4.79c-16.5-4.8-33-9.47-49.61-14.21-15.07-3.93-30.18-7.74-45.3-11.62a95.74,95.74,0,0,0-28.17-3.9h0c-29.44.06-59.51,11.66-92.08,20.71,12.94,3.65,25.82,7.43,38.7,11.14,6.45,6.84,9.57,13.78,10.23,20.65,1.36,14.83-9.08,29.14-23.68,40.71s-33.44,20.49-48.95,24.42l-4.58-4.55c15.61-11.7,31.34-21.1,35.63-44.15-27.16,2.65-29.11,25.67-44.79,35.07l-9.47-27.46L433,633.69c7.63-18.53-2.14-25.27-13.37-31.4s-23.89-11.59-21.93-27.74L370,563.61l-27.73-10.86-28.9,35.19c21,17.89,42.58,36.39,58.71,57.87s26.8,46.05,26.27,76"/><path class="cls-10" d="M315.59,649.64c-.46-39.1-19.53-71.86-47.92-96.63a203.44,203.44,0,0,0-48.38-30.82,235.92,235.92,0,0,0-55.2-17.45,235.92,235.92,0,0,1,55.2,17.45A203.44,203.44,0,0,1,267.67,553c28.39,24.77,47.46,57.53,47.92,96.63"/><path class="cls-11" d="M474.57,683.61c15.68-9.4,17.63-32.42,44.79-35.07-27.16,2.65-29.11,25.67-44.79,35.07"/><path class="cls-3" d="M771.73,642.15l-31.09-28-13.46-4.79c-16.5-4.8-33-9.47-49.61-14.21l-2.29,4.59,42.77,18.71-47.36-2.64c9,8.11,19.1,12.79,29.77,16s21.92,5,33.12,7.52l38.15,2.81m-44.55-32.81c-16.5-4.8-33-9.47-49.61-14.21,16.56,4.74,33.11,9.41,49.61,14.21"/><path class="cls-4" d="M727.18,609.34c-16.5-4.8-33-9.47-49.61-14.21,16.56,4.74,33.11,9.41,49.61,14.21"/><polyline class="cls-3" points="477.01 697.39 474.57 683.61 483.73 692.7 477.01 697.39"/><polyline class="cls-3" points="252.58 292.75 249.81 276.73 252.58 292.75"/><path class="cls-12" d="M504.69,927.05c-29.16-31.84-34.29-70.29-32.92-110.27s9.16-81.49,5.24-119.39l6.72-4.7,4.58,4.55c15.51-3.93,34.35-12.88,48.95-24.42s25-25.88,23.68-40.71c-.66-6.87-3.78-13.81-10.23-20.65C537.83,607.75,525,604,512,600.32c32.57-9.05,62.64-20.65,92.08-20.71a95.76,95.76,0,0,1,28.18,3.9c15.12,3.88,30.23,7.69,45.3,11.62l-2.29,4.59-40.77-9.29c11.33,11.53,24.89,17.85,39.29,21.64s29.6,5.11,44.25,6.36l-47.36-2.64c9,8.11,19.1,12.79,29.77,16s21.92,5,33.12,7.52l-6.86,11.4L753,697.1c-16.94-11-33.94-22-51.08-32.79L683.8,687.18c8.82,19.62,18.69,41.55,30.7,62.62s26.09,41.46,43.44,57.78c-11.4-9.36-22.13-20-32.84-30.93s-21.44-22-32.75-32.48S669.11,724,655.92,716.1a140.15,140.15,0,0,0-43.87-17.58l-4.42,20.74-13.5-13.75c7.92,19.52,20.29,33.81,32.26,48.2s23.6,28.8,30.17,48.35c-13.25-12.27-26.52-24.59-39.9-36.83,2.3,25.23,22.22,43.72,28.81,64.42-16.29-15.89-25.68-43-35.89-66s-21.15-42.11-40.53-42c-.58,0-1.17,0-1.76,0-.91,0-1.83,0-2.73,0-17.28.14-30.17,5.63-39.29,14.76s-14.52,22-16.81,36.71c-4.58,29.5,3.19,66.77,17.76,98.39l-13.46-11.35c-24.29,14.13-1.66,46-8.07,66.83"/><path class="cls-13" d="M560.94,632.11c-.66-6.87-3.78-13.81-10.23-20.65C537.83,607.75,525,604,512,600.32c12.94,3.65,25.82,7.43,38.7,11.14,6.45,6.84,9.57,13.78,10.23,20.65"/><path class="cls-13" d="M512,600.32c32.57-9.05,62.64-20.65,92.08-20.71-29.44.06-59.51,11.66-92.08,20.71"/><polyline class="cls-14" points="718.05 618.43 670.69 615.79 718.05 618.43"/><polyline class="cls-14" points="675.28 599.72 677.57 595.13 675.28 599.72"/><path class="cls-12" d="M807.14,560.06l9.14-4.43L828,542.11c-4.5-1.67-9-3.29-13.53-4.91,4.52,1.62,9,3.24,13.53,4.91l2.73-18.33c-10.42-8.76-20.89-17.33-31.39-26L817.44,505l-26.91-25.83,34,16.78.27-11.49-11.25-9.44c-13.65-4.87-28-7.47-42-10.6s-27.76-6.71-40.34-13.78a145.78,145.78,0,0,1,35.58-3.5c12.58.16,25.22,1.66,38,3.28l19.36,2.48c6.5.84,13.06,1.6,19.69,2.17l9.32-4.35c-8.54-3.69-17.39-6.95-26.24-10.24s-17.72-6.51-26.3-10.29A153.39,153.39,0,0,1,776.11,417,98.27,98.27,0,0,1,755,398.1c2.54-.19,5-.26,7.48-.23,12,.13,23,2.86,33.55,6.77s20.62,9.05,30.69,14.22,20.14,10.43,30.71,14.42a116.5,116.5,0,0,0,16.29,4.92,94,94,0,0,0,17.43,2.29c1.27,0,2.57,0,3.85,0a175.24,175.24,0,0,0-19-15.47c-6.93-4.94-14.3-9.74-21.7-14.54-14.78-9.6-29.63-19.25-41-29.78,4.59,2.4,9.14,4.85,13.66,7.39s9,5.18,13.44,7.85q13.33,8,26.3,16.61c8.66,5.67,17.22,11.6,25.72,17.58s16.94,12,25.35,18.06l4.61.16c45.67,11.05,86.41,24.42,127,36.13l-25.48-16.47L998.3,451.77l25.63,16.28,25.48,16.47c65.15,22.31,125.16,45.44,185.64,76.73l-11.32-12.11-11.4-12-23-24A88.21,88.21,0,0,1,1215,503a113.88,113.88,0,0,1,12.9-2.17c4.29-.45,8.57-.71,12.82-.86,8.51-.31,16.9-.19,25.08-.38,4.09-.1,8.13-.29,12.1-.61a102.31,102.31,0,0,0,11.69-1.51c-11.51-5.38-22.59-11.19-33.41-17.3-5.41-3.05-10.77-6.16-16.09-9.27s-10.61-6.24-15.9-9.21c-21.17-12-42.27-23.22-65-29.51,22.73,6.29,43.83,17.55,65,29.51,5.29,3,10.58,6.11,15.9,9.21s10.68,6.22,16.09,9.27c10.82,6.11,21.9,11.92,33.41,17.3l9.33-1.28c-17.33-20.54-38.41-35.26-59.74-48.95l-8-5.08c-2.68-1.66-5.35-3.3-8-4.95-5.32-3.28-10.61-6.57-15.81-9.92s-10.31-6.76-15.28-10.3-9.81-7.23-14.46-11a114.33,114.33,0,0,1,19.61,9c6.33,3.52,12.55,7.39,18.91,11.13a193,193,0,0,0,19.77,10.39,93.57,93.57,0,0,0,22.23,6.91l-8.3-10.07-13.66-3.68,13.66,3.68a152.14,152.14,0,0,1,21.2,7.16,175.39,175.39,0,0,1,19.57,9.7c12.61,7.19,24.48,15.44,36.29,23.7,15.45-13.26,32.18-26.21,49.21-35.73,4.26-2.37,8.53-4.55,12.8-6.4a110.83,110.83,0,0,1,12.79-4.64,72.92,72.92,0,0,1,25.11-3.16c5.4.74,10.82,1.42,16.21,2.22-10.93-6.18-21.92-12.24-32.94-18.38l10.7,8.4c-15.12-10.54-30.32-21.16-45.65-31.46l-19.89-22.12-10-11.08-10.07-10.95c4.26,1.06,8.51,2.08,12.76,3.17l12.76,3.3,25.47,6.6L1374,335.9c-25.16-10.14-47.76-21.78-64.83-42.22l29-.25,14.49-.11,14.51,0q18.46-12.81,37.16-25.57l.11-39.38a107.31,107.31,0,0,0-35.63-40.27c-15.14-10.16-33.29-16.65-53.66-18.92-2.41-.28-4.86-.48-7.32-.59l-1.18,34.55-9.75-24.09-24.38,23c-7.12-2.24-14.25-4.55-21.37-6.72-14,19.55-30.18,23.88-47,22.38s-34.42-8.5-51.13-12.15l13.57,12.61c-4.42,7-9,11.57-13.71,14.24a24.92,24.92,0,0,1-14.33,3.19c-14.49-1-29.23-12.83-41.93-17.85-9.07-7.65-18.16-15.19-27.3-22.78-.91,0-1.76.22-2.62.22l1.15-1.46-1-.84c-13.5-3.11-27-6.24-40.51-9.18l-21-14.89-11.53-12.1,11.53,12.1,14.11,7.63-11.36-14.4,23.51,12.72c-15.51-10.76-31.13-21.6-46.78-32.28l-16.6-7.61,4.94-2.09-21-19.31c-15-9.13-30-18-45.12-27-10.6,1.94-21.21,3.84-31.75,5.88,9-2.85,18-5.6,27-8.35L916.92,80c-16.12-2.86-32.27-5.75-48.35-8.45l2.76-11.43a234.41,234.41,0,0,0-32-9.49,339.47,339.47,0,0,0-35.68-5.94l-2.4-.05-20.7,4.2L760,53.14l18.23-6.65,18.31-6.55-2-20.75c-11.75.65-23.87,4-36.21,7.12s-24.91,6-37.46,5.88a65.8,65.8,0,0,1-18.55-2.68L707,34.14l-36.16,2q-30.69,13.5-59.48,29.52l16.21,16.41L611.36,65.71c-17.24,9.6-34,19.81-49.94,30.84a535.41,535.41,0,0,0-45.75,35.34c-28.91,25.19-54.62,53.43-76,85.32,8.14-3.59,16.29-7.17,24.37-10.86s16.11-7.43,24-11.41a309.53,309.53,0,0,0,45-27.24A313,313,0,0,1,564.85,154,282,282,0,0,1,662.78,137c4.92,0,9.81.11,14.78.39q-25.11,18.29-50,36.7H630l-11.83,13.8,9.46-13.8c-19,0-36.66,3.27-53.66,8.1s-33.18,11.44-49.16,18c-31.92,13.28-62.78,26.91-96.67,28.66l11.51-11.7L410,228.08,380.4,239c-19.71,7.28-39.32,14.68-58.94,22Q300.07,291.45,278.87,322l37.19,3.63-20.56,12c-2.93,4.13-14.69,10.64-15.73,16.4-1.28,7.43,15,13.43,90.53,11.74l39.26-5.4c-43.65,19.24-82.46,40.86-113.83,76.2l30.41,17.64A292.07,292.07,0,0,1,372.87,442a313.16,313.16,0,0,1,47.81-4.57,333.68,333.68,0,0,1,63.64,5.05c63.31,11.09,124.52,39.74,175.36,81.35,9.11,6.88,20.48,12.14,33,16.26s26.13,7,39.72,9.56l4.55.06L723.42,538l20.35,9.5c-10.44-12.4-20.93-24.86-31.48-37.18q10.2,8.12,20.36,16.32L752.93,543l6.9-4.52L725.92,515l38.49,21.24,9.27-9.07,33.46,32.89m333.59-129.33c33.44,18.74,60.91,48.67,103.3,62.08-42.39-13.41-69.86-43.34-103.3-62.08-4.44-2.64-8.89-5.34-13.35-7.93l-9.09-2.93,9.09,2.93c4.46,2.59,8.91,5.29,13.35,7.93l-2.83,6.71c-6.06-1.66-12.13-3.23-18.2-4.8l-18.23-4.72,18.23,4.72c6.07,1.57,12.14,3.14,18.2,4.8l2.83-6.71m-192.15-2c16.1,1.85,28.95,11.55,41.44,21.45s24.62,19.65,39.45,21.62c-14.83-2-27-11.75-39.45-21.62s-25.34-19.6-41.44-21.45m-27.71-1.13-2.31-.08-22.93-5.38,22.93,5.38,2.31.08c13.68,5.1,25.51,12.58,37.3,19.68,5.9,3.56,11.79,7,17.9,10.15a115.21,115.21,0,0,0,19.24,8,115.21,115.21,0,0,1-19.24-8c-6.11-3.1-12-6.59-17.9-10.15-11.79-7.1-23.62-14.58-37.3-19.68m193.64,12.74-14.3,5.94,14.3-5.94m-645-104-59.92,24,59.92-24m0,0-59.92,24,59.92-24m0,0,9.26-2.42,9.24-4.71,9.28-2.43,8.76-4.48.9-.37,8.86-2.29,9.27-4.68,9.29-2.38,9.3-4.7,9.29-4.66,7-2.36,9.31-4.68,9.33-4.63,9.3-4.64,7-4.62,9.35-4.63,7-6.92a212,212,0,0,0-50.67,16c-15.93,7.18-31.14,15.69-46.22,24.41l-3.26,1.66-2.47,1.68-11.09,6.39-2.64,1.34-9.22,4.72-5.13,3.47c-3.67,2-7.31,4-11,5.94M316.06,325.6c4,.28,8.14.35,12.3.25,2.82-.06,5.7-.46,8.56-.73l9.29-.22,9.2-2.52L367,319.83l5.5-2.86a148.06,148.06,0,0,0,15-6.68l.2-.1,9.2-4.77-9.2,4.77,9.2-4.77-9.2,4.77-.08,0c3.1-1.59,6.17-2.93,9.28-4.8a61.71,61.71,0,0,1-11.95,5.52l-6.51,1.75-11.55,2.54-3.64,1c-3.57.6-7.18,1.14-10.81,1.66l-6.38.15-6.58,1.79c-8.14,1.35-16.09,3-23.41,5.8m990.56-122.42-.72,6.87,9,7.92-8.25-14.79"/><path class="cls-2" d="M469.48,336.35c12.1-4.74,24.33-9.33,36.54-14l-8.76,4.48L488,329.22l-9.24,4.71-9.26,2.42"/><path class="cls-2" d="M480.5,330.41l5.13-3.47,9.22-4.72,2.64-1.34q-8.43,4.88-17,9.53"/><path class="cls-2" d="M506.92,321.94c18.27-7,36.52-14.18,54.08-22.49s34.52-17.5,50.2-28.7l-7,6.92-9.35,4.63-7,4.62-9.3,4.64-9.33,4.63-9.31,4.68-7,2.36-9.29,4.66-9.3,4.7L525.05,315l-9.27,4.68-8.86,2.29"/><path class="cls-2" d="M508.58,314.49l2.47-1.68,3.26-1.66-5.73,3.34"/><path class="cls-15" d="M1066.63,195.23l1.15-1.46,1.47,1.24c-.91,0-1.76.22-2.62.22"/><polyline class="cls-14" points="627.57 82.12 611.36 65.71 627.57 82.12"/><polyline class="cls-14" points="1420.79 416.16 1410.09 407.76 1420.79 416.16"/><path class="cls-14" d="M1386.16,353.62l-25.47-6.6-12.76-3.3c-4.25-1.09-8.5-2.11-12.76-3.17,4.26,1.06,8.51,2.08,12.76,3.17l12.76,3.3,25.47,6.6"/><polyline class="cls-14" points="1309.19 293.68 1338.14 293.43 1352.63 293.31 1367.14 293.36 1352.63 293.31 1338.14 293.43 1309.19 293.68"/><polyline class="cls-16" points="469.48 336.35 478.74 333.93 487.98 329.21 497.26 326.79 506.02 322.31 497.26 326.79 487.98 329.21 478.74 333.93 469.48 336.35"/><polyline class="cls-16" points="480.5 330.41 485.63 326.94 494.85 322.22 497.49 320.88 494.85 322.22 485.63 326.94 480.5 330.41"/><polyline class="cls-16" points="506.92 321.94 515.78 319.65 525.05 314.97 534.35 312.59 543.64 307.89 552.93 303.23 559.9 300.87 569.21 296.19 578.54 291.56 587.85 286.92 594.86 282.31 604.21 277.67 611.2 270.75 604.21 277.67 594.86 282.31 587.85 286.92 578.54 291.56 569.21 296.19 559.9 300.87 552.93 303.23 543.64 307.89 534.35 312.59 525.05 314.97 515.78 319.65 506.92 321.94"/><polyline class="cls-16" points="508.58 314.49 511.05 312.81 514.31 311.15 511.05 312.81 508.58 314.49"/><polyline class="cls-16" points="409.56 360.37 469.48 336.35 409.56 360.37"/><polyline class="cls-16" points="409.56 360.37 469.48 336.35 409.56 360.37"/><path class="cls-13" d="M732.38,549.6c-13.59-2.52-27.23-5.41-39.72-9.56s-23.87-9.38-33-16.26c-50.84-41.61-112-70.26-175.36-81.35,63.31,11.09,124.52,39.74,175.36,81.35,9.11,6.88,20.48,12.14,33,16.26s26.13,7,39.72,9.56"/><path class="cls-13" d="M326.14,454.21A292.07,292.07,0,0,1,372.87,442a313.16,313.16,0,0,1,47.81-4.57,312.91,312.91,0,0,0-47.8,4.57,292.47,292.47,0,0,0-46.74,12.26"/><path class="cls-2" d="M346.21,324.9l-9.29.22A134.87,134.87,0,0,0,372.48,317l-5.5,2.86-11.57,2.55-9.2,2.52"/><path class="cls-2" d="M339.47,319.8l6.58-1.79,6.38-.15c-4.35.59-8.66,1.24-13,1.94"/><path class="cls-2" d="M363.24,316.2l3.64-1,11.55-2.54,6.51-1.75a122.15,122.15,0,0,1-21.7,5.26"/><path class="cls-2" d="M387.49,310.29s.08,0,.12-.07l.08,0-.2.1"/><polyline class="cls-3" points="259.59 294.86 264.17 292.44 259.59 294.86"/><path class="cls-8" d="M278.87,322c-58.14-7.68-114.53-33.57-172.52-38.63L140,250.07l-4.47,4.74c7.76,1.3,17.53,1.25,28.24.93l16.64-.58c17.09-.52,35.07-.48,50.3,3.7l19.08,17.87.07,2.29,2.7,13.74L239,307l20.55-12.09,4.58-2.42,57.29-31.38Q300.07,291.45,278.87,322"/><path class="cls-17" d="M163.79,255.74c-10.71.32-20.48.37-28.24-.93,7.76,1.3,17.5,1.23,28.22.91l16.66-.56-16.64.58"/><polyline class="cls-17" points="135.55 254.81 140.02 250.06 135.55 254.81"/><polyline class="cls-18" points="252.58 292.75 249.88 279.02 249.81 276.73 252.58 292.75"/><path class="cls-17" d="M278.87,322q21.24-30.45,42.59-60.91Q300.07,291.45,278.87,322"/><path class="cls-8" d="M273,470.64c-17.21.45-36.82-2.87-56.74-7.88s-40.16-11.59-58.6-17.65C171.9,421.66,192,400.92,213.69,381s44.83-39,65.18-59l37.19,3.63-20.56,12c-2.93,4.13-14.69,10.64-15.73,16.4-1.28,7.43,15,13.43,90.53,11.74l39.26-5.4c-43.65,19.24-82.46,40.86-113.83,76.2l30.41,17.64-18.25,7.34c-7.15,4.54-15.67,7.19-25.15,8.35-3.16.4-6.39.65-9.76.74"/><path class="cls-17" d="M295.73,436.57c31.37-35.34,70.18-57,113.83-76.2-43.65,19.24-82.46,40.86-113.83,76.2"/><path class="cls-17" d="M279.77,354c1-5.76,12.8-12.27,15.73-16.4l20.56-12-20.56,12c-2.93,4.13-14.69,10.64-15.73,16.4"/><path class="cls-19" d="M392,507.86q-28.44.54-56.89.61c-56.92,0-113.94-1.48-171.06-3.73a179.72,179.72,0,0,0-52-6.13q-8.65.28-17.22,1.42C74.66,445.45,56.7,390.8,43.25,331.41l63.1-48.07c58,5.06,114.38,31,172.52,38.63-20.35,20.06-43.51,39.16-65.18,59s-41.79,40.66-56.05,64.11c18.44,6.06,38.68,12.68,58.6,17.65s39.53,8.33,56.74,7.88h0c3.35-.09,6.58-.34,9.74-.74,9.48-1.16,18-3.81,25.15-8.35l18.25-7.34c20.1,10.89,41.56,16.18,63.91,18.81s45.7,2.43,69.46,2l11.91-.21c12.77-.16,25.64-.27,38.51.09a360.21,360.21,0,0,1,39.72,3.13l7.05,20.64c-54.85,5.21-109.7,8-164.66,9.15"/><path class="cls-14" d="M392,507.86c55-1.11,109.81-3.94,164.66-9.15-54.85,5.18-109.7,8-164.66,9.15"/><path class="cls-14" d="M335.15,508.47c-56.92,0-113.94-1.48-171.06-3.73,57.12,2.25,114.14,3.75,171.06,3.73"/><path class="cls-14" d="M509.93,474.94c-12.87-.36-25.74-.25-38.51-.09l-11.91.21c-23.76.39-47.05.56-69.46-2,22.41,2.6,45.7,2.41,69.46,2l11.91-.21c12.76-.16,25.63-.25,38.51.11"/><path class="cls-20" d="M273,470.64h0c3.37-.09,6.6-.34,9.76-.74-3.16.4-6.39.65-9.74.74"/><path class="cls-20" d="M157.64,445.11C171.9,421.66,192,400.92,213.69,381s44.83-39,65.18-59c-20.35,20.06-43.51,39.16-65.18,59s-41.79,40.66-56.05,64.11"/><path class="cls-3" d="M164.09,504.74,94.86,500q8.58-1.14,17.22-1.42a179.72,179.72,0,0,1,52,6.13"/><polyline class="cls-18" points="164.09 504.74 94.86 500.03 164.09 504.74"/></g></g></g></svg>