<svg xmlns="http://www.w3.org/2000/svg" viewBox="0 0 297.49 315.2"><defs><style>.cls-1,.cls-3,.cls-4,.cls-5,.cls-6,.cls-7,.cls-8,.cls-9{fill:#00a99d;}.cls-1{opacity:0.43;}.cls-2{opacity:0.8;}.cls-4{opacity:0.5;}.cls-5{opacity:0.21;}.cls-6{opacity:0.63;}.cls-7{opacity:0.44;}.cls-8{opacity:0.67;}.cls-9{opacity:0.83;}</style></defs><title>UXicorn</title><g id="Layer_2" data-name="Layer 2"><g id="Layer_1-2" data-name="Layer 1"><path class="cls-1" d="M0,87.86l.9-.37L57,64.7c-.26-2.63,1.12-8.37.86-11L59,38Z"/><g class="cls-2"><polygon class="cls-3" points="0 87.86 59.21 83.39 56.99 64.7 0 87.86"/></g><polygon class="cls-4" points="59.01 37.97 57.85 53.7 56.7 67.46 61.33 148.08 111.11 129.4 59.01 37.97"/><polygon class="cls-5" points="61.33 148.08 116.89 147.09 111.11 129.4 61.33 148.08"/><polygon class="cls-6" points="159.73 147.09 116.89 147.09 111.11 129.4 159.73 147.09"/><polygon class="cls-7" points="61.33 148.08 91.42 225.74 99.53 180.52 159.73 147.09 112.26 147.09 61.33 148.08"/><polygon class="cls-8" points="75.22 306.35 121.52 199.2 99.53 180.52 75.22 306.35"/><polygon class="cls-3" points="277.78 297.77 266.23 181.5 260.44 244.42 277.78 297.77"/><polygon class="cls-3" points="105.32 298.49 133.1 199.2 121.52 199.2 109.95 225.74 105.32 298.49"/><polygon class="cls-4" points="99.53 180.52 121.52 199.2 223.4 169.7 236.13 152.99 159.73 147.09 99.53 180.52"/><polygon class="cls-3" points="121.52 199.2 223.4 169.7 230.34 202.15 121.52 199.2"/><polyline class="cls-5" points="223.4 169.7 236.13 152.99 268.55 156.92"/><polyline class="cls-9" points="266.23 183.47 268.55 156.92 297.49 221.81"/><path class="cls-1" d="M9.25,0l44,43.4-8.46,6.71Z"/><polygon class="cls-8" points="253.5 315.2 268.55 156.92 223.4 169.7 253.5 315.2"/></g></g></svg>